<?xml version="1.0" encoding="utf-8"?>
<!-- Generator: Adobe Illustrator 23.0.3, SVG Export Plug-In . SVG Version: 6.00 Build 0)  -->
<svg version="1.1" id="Capa_1" xmlns="http://www.w3.org/2000/svg" xmlns:xlink="http://www.w3.org/1999/xlink" x="0px" y="0px"
	 viewBox="0 0 900 811.1" style="enable-background:new 0 0 900 811.1;" xml:space="preserve">
<style type="text/css">
	.st0{fill:#3D4D6F;}
	.st1{fill:#CDDFC0;stroke:#3B4B6C;stroke-width:4.7956;stroke-miterlimit:10;}
	.st2{fill:#FFFFFF;stroke:#3D4D6F;stroke-width:4.7956;stroke-miterlimit:10;}
	.st3{fill:#276683;}
	.st4{fill:none;stroke:#26627E;stroke-width:4.7956;stroke-miterlimit:10;}
</style>
<g>
	<circle class="st0" cx="435.5" cy="398.1" r="262.8"/>
	<g>
		<polygon class="st0" points="71.3,115.9 72.9,86.8 66.8,86.6 65.2,115.9 29.2,115.9 29.2,120.5 64.9,120.5 63.6,144.9 69.7,145.1 
			71.1,120.5 101.1,120.5 101.1,115.9 		"/>
		<polygon class="st0" points="39.3,656.9 40.7,630.4 35.2,630.2 33.8,656.9 1,656.9 1,661 33.5,661 32.3,683.3 37.9,683.4 
			39.1,661 66.4,661 66.4,656.9 		"/>
		<polygon class="st0" points="871.9,528.3 873.3,495.9 867.8,495.7 866.4,528.3 833.6,528.3 833.6,533.4 866.1,533.4 864.9,560.6 
			870.5,560.8 871.7,533.4 899,533.4 899,528.3 		"/>
		<path class="st0" d="M788.4,108c-19.8,0-35.9-16.1-35.9-35.9s16.1-35.9,35.9-35.9s35.9,16.1,35.9,35.9S808.2,108,788.4,108z
			 M788.4,45.2c-14.8,0-26.8,12-26.8,26.8s12,26.8,26.8,26.8s26.8-12,26.8-26.8S803.2,45.2,788.4,45.2z"/>
		<path class="st1" d="M263.8,156.6c0,0,39.1-18.9,49.8-24c4-1.9,16.2-4.2,17.7,0c10.1,28.4,25.9,80.1,25.9,80.1L407,38.7L549.6,38
			v32.8H437.9c0,0-47.3,153.9-64.3,209.4c-2.1,6.8-25.9,4.8-28.4-1.9c-12.6-34.1-37.8-103.4-37.8-103.4l-27.8,12.6L263.8,156.6z"/>
		<polygon class="st2" points="550,140.8 517.3,140.8 496.6,176.8 475.8,140.8 443.1,140.8 480.2,205.1 443.2,269.2 475.9,269.3 
			496.6,233.4 517.2,269.3 549.9,269.2 512.9,205.1 		"/>
		<path class="st1" d="M191.7,348c-4.3,1.2-108.4,50.3-108.4,50.3l108.4,47.2v-21.5l-58.8-25.7l58.8-27.5V348z"/>
		<path class="st2" d="M350.3,465.9c-4.3,1.2-108.4,50.3-108.4,50.3l108.4,47.2v-21.5l-58.8-25.7l58.8-27.5V465.9z"/>
		<path class="st1" d="M241.9,348c4.3,1.2,108.4,50.3,108.4,50.3l-108.4,47.2v-21.5l58.8-25.7l-58.8-27.5V348z"/>
		<path class="st2" d="M83.3,465.9c4.3,1.2,108.4,50.3,108.4,50.3L83.3,563.4v-21.5l58.8-25.7l-58.8-27.5V465.9z"/>
		<rect x="81.5" y="583.8" class="st2" width="112" height="17.1"/>
		<rect x="240.1" y="583.8" class="st2" width="112" height="17.1"/>
		<g>
			<path class="st3" d="M758.2,565.3c-1.7,3.5-3.6,6.9-5.3,10.4c-3.4,7-7.6,13.6-11.5,20.4l10,6.1c4-7,8.3-13.8,11.9-21.1
				c1.8-3.6,3.8-7.1,5.5-10.8l5-11l-10.7-4.7L758.2,565.3z"/>
			<path class="st3" d="M403.7,761.2l-1.3,11.6c16,1.6,32.2,2.6,48.3,2l-0.3-11.7C434.8,763.7,419.2,762.7,403.7,761.2z"/>
			<path class="st3" d="M348.1,750.5l-3.1,11.3c7.7,2.4,15.7,3.9,23.5,5.8c7.9,1.4,15.8,3.1,23.8,4l1.6-11.6
				c-7.8-0.9-15.4-2.6-23.1-3.9C363.3,754.2,355.6,752.8,348.1,750.5z"/>
			<path class="st3" d="M290.1,741.7c14.6,6.9,29.8,12.3,45.1,17.3l3.4-11.2c-14.8-4.8-29.6-10-43.7-16.7L290.1,741.7z"/>
			<path class="st3" d="M255.3,710l-9.8-6.4l-6.5,9.7l10.1,6.6l10.4,6.1c6.9,4.2,14.2,7.6,21.3,11.4l5.2-10.5
				c-6.9-3.7-14-7-20.6-11.1L255.3,710z"/>
			<path class="st3" d="M193.1,677.1c11.9,10.8,24.3,21.2,37.5,30.5l6.8-9.5c-12.8-8.9-24.8-19-36.3-29.5L193.1,677.1z"/>
			<path class="st3" d="M163,626.7l-9.2,7.2c9.9,12.7,20.5,24.9,32.1,36.1l8.2-8.3C182.9,650.8,172.6,639,163,626.7z"/>
			<path class="st3" d="M82.8,348.4l11.5,2c2.6-15.4,6.6-30.5,11.2-45.4l-11.1-3.6C89.6,316.9,85.5,332.5,82.8,348.4z"/>
			<path class="st3" d="M106.3,269.3c-2.9,7.5-6.2,14.9-8.7,22.6l11,3.9c2.4-7.4,5.6-14.6,8.4-21.8c3.3-7,6.2-14.3,10-21.2
				l-10.4-5.3C112.8,254.5,109.8,262,106.3,269.3z"/>
			<path class="st3" d="M147.2,197.6c-9.7,12.9-18.1,26.7-25.9,40.8l10.3,5.6c7.6-13.6,15.7-27,25-39.5L147.2,197.6z"/>
			<path class="st3" d="M237,125.4l-6.7-9.6c-13,9.5-25.8,19.4-37.5,30.5l8,8.6C212,144.1,224.4,134.5,237,125.4z"/>
			<path class="st3" d="M285.7,96.6l-5.1-10.5c-14.5,7-28.5,15.1-41.9,24l6.5,9.7C258.1,111.2,271.7,103.3,285.7,96.6z"/>
			<path class="st3" d="M338.4,75.9L335,64.7c-15.4,4.6-30.5,10.5-45.2,17l4.8,10.7C308.9,86,323.4,80.4,338.4,75.9z"/>
			<path class="st3" d="M393.7,63.9l-1.6-11.6c-16,2.3-31.8,5.2-47.4,9.6l3.1,11.3C362.9,69,378.3,66.1,393.7,63.9z"/>
			<path class="st3" d="M570.2,85.7c14.6,5.6,28.6,12.5,42.3,20l5.7-10.2c-14.2-7.7-28.6-14.8-43.7-20.6L570.2,85.7z"/>
			<path class="st3" d="M659.5,137.2l7.3-9.2c-6.2-5.2-12.9-9.6-19.4-14.4c-6.8-4.3-13.4-9-20.4-13l-6,10.1
				c6.8,3.8,13.2,8.4,19.8,12.5C647,127.8,653.5,132.2,659.5,137.2z"/>
			<path class="st3" d="M745.4,214c-8.9-13.4-18.5-26.4-29.1-38.6l-8.9,7.6c10.2,11.8,19.5,24.4,28.2,37.4L745.4,214z"/>
			<path class="st3" d="M762.6,270.1l10.7-4.8c-6.6-14.7-14-29.1-22.5-42.7l-10,6.1C749.1,242,756.3,255.9,762.6,270.1z"/>
			<path class="st3" d="M791.6,445.6c-1.6,15.5-3.8,31-7.6,46.2l11.4,2.6c3.8-15.7,6.1-31.7,7.8-47.7L791.6,445.6z"/>
			<path class="st3" d="M775,523.7c-1.3,3.7-2.4,7.4-3.8,11.1l-4.3,10.9l10.8,4.4l4.5-11.2c1.4-3.8,2.6-7.6,4-11.4
				c2.8-7.6,4.7-15.4,7-23.2l-11.3-3C779.6,508.8,777.7,516.4,775,523.7z"/>
		</g>
		<path class="st2" d="M675.9,730.8H418.7c-15,0-27.2-12.2-27.2-27.2V373.5c0-15,12.2-27.2,27.2-27.2h257.2
			c15,0,27.2,12.2,27.2,27.2v330.1C703.1,718.6,690.9,730.8,675.9,730.8z"/>
		<path class="st1" d="M444.7,383L444.7,383c-5.7,0-10.4-4.7-10.4-10.4v-31.2c0-5.7,4.7-10.4,10.4-10.4h0c5.7,0,10.4,4.7,10.4,10.4
			v31.2C455.2,378.4,450.5,383,444.7,383z"/>
		<path class="st1" d="M514.1,383L514.1,383c-5.7,0-10.4-4.7-10.4-10.4v-31.2c0-5.7,4.7-10.4,10.4-10.4h0c5.7,0,10.4,4.7,10.4,10.4
			v31.2C524.5,378.4,519.9,383,514.1,383z"/>
		<path class="st1" d="M583.5,383L583.5,383c-5.7,0-10.4-4.7-10.4-10.4v-31.2c0-5.7,4.7-10.4,10.4-10.4h0c5.7,0,10.4,4.7,10.4,10.4
			v31.2C593.9,378.4,589.3,383,583.5,383z"/>
		<path class="st1" d="M652.9,383L652.9,383c-5.7,0-10.4-4.7-10.4-10.4v-31.2c0-5.7,4.7-10.4,10.4-10.4l0,0
			c5.7,0,10.4,4.7,10.4,10.4v31.2C663.3,378.4,658.6,383,652.9,383z"/>
		<line class="st4" x1="392.7" y1="414.3" x2="703.1" y2="414.3"/>
		<g>
			<g>
				<path class="st0" d="M458.8,581.7c0,3.3,0.1,6.5,0.6,8.5h-9.9l-0.6-3.5h-0.2c-2.3,2.8-5.9,4.3-10.1,4.3
					c-7.1,0-11.4-5.2-11.4-10.8c0-9.1,8.2-13.5,20.6-13.5v-0.4c0-1.9-1-4.6-6.4-4.6c-3.6,0-7.4,1.2-9.7,2.7l-2-7
					c2.4-1.4,7.3-3.2,13.7-3.2c11.7,0,15.4,6.9,15.4,15.2V581.7z M448.2,573.6c-5.8,0-10.2,1.4-10.2,5.5c0,2.8,1.9,4.2,4.3,4.2
					c2.7,0,5-1.8,5.7-4c0.1-0.6,0.2-1.2,0.2-1.9V573.6z"/>
			</g>
		</g>
		<g>
			<g>
				<path class="st0" d="M462.3,556v-3.5l3.2-2.9c5.5-4.9,8.1-7.7,8.2-10.6c0-2-1.2-3.6-4.1-3.6c-2.1,0-4,1.1-5.3,2l-1.6-4.1
					c1.8-1.4,4.8-2.6,8.1-2.6c5.7,0,8.7,3.3,8.7,7.8c0,4.2-3,7.6-6.6,10.8l-2.3,1.9v0.1h9.4v4.8H462.3z"/>
			</g>
		</g>
		<g>
			<g>
				<path class="st0" d="M569.4,556v-3.5l3.2-2.9c5.5-4.9,8.1-7.7,8.2-10.6c0-2-1.2-3.6-4.1-3.6c-2.1,0-4,1.1-5.3,2l-1.6-4.1
					c1.8-1.4,4.8-2.6,8.1-2.6c5.7,0,8.7,3.3,8.7,7.8c0,4.2-3,7.6-6.6,10.8l-2.3,1.9v0.1h9.4v4.8H569.4z"/>
			</g>
		</g>
		<g>
			<g>
				<path class="st0" d="M534.2,534.9h10.9v20.1h0.1c2.1-3,5.8-5,10.6-5c8.4,0,14.5,7,14.5,17.8c0,12.7-8,19-16,19
					c-4.1,0-8.1-1.5-10.6-5.7h-0.1l-0.4,4.9h-9.3c0.1-2.3,0.3-6.5,0.3-10.5V534.9z M545.2,571c0,0.7,0.1,1.4,0.2,1.9
					c0.7,2.9,3.2,5.2,6.4,5.2c4.7,0,7.6-3.6,7.6-9.9c0-5.5-2.4-9.8-7.6-9.8c-2.9,0-5.7,2.2-6.4,5.4c-0.1,0.6-0.2,1.3-0.2,2V571z"/>
			</g>
		</g>
		<g>
			<g>
				<path class="st0" d="M507.7,547.7v15.7h15v6.7h-15v15.9h-7V570h-15v-6.7h15v-15.7H507.7z"/>
			</g>
		</g>
		<g>
			<g>
				<path class="st0" d="M598.2,562.6v-6.7h37.1v6.7H598.2z M598.2,577.5v-6.7h37.1v6.7H598.2z"/>
			</g>
		</g>
		<g>
			<path class="st1" d="M794,311.5c1.5-2.6,2.6-7.3,2.6-10.5c0-10.1-8.4-16.7-18.6-16.7c-8.6,0-13.5,6.3-17.7,13.9L655.1,503.5
				c0,0-16.3,51.9-15.7,68.2c11.3-11.3,47.9-51.7,47.9-51.7L794,311.5L794,311.5z"/>
			<line class="st1" x1="656.9" y1="502.9" x2="685.8" y2="518.8"/>
			<line class="st1" x1="670.6" y1="509.2" x2="765.5" y2="325.5"/>
			<line class="st1" x1="751.7" y1="317.5" x2="781" y2="334.1"/>
			<line class="st1" x1="761.9" y1="295.5" x2="791.3" y2="312"/>
		</g>
	</g>
</g>
</svg>
