<?xml version="1.0" encoding="utf-8"?>
<!-- Generator: Adobe Illustrator 23.0.3, SVG Export Plug-In . SVG Version: 6.00 Build 0)  -->
<svg version="1.1" id="Capa_1" xmlns="http://www.w3.org/2000/svg" xmlns:xlink="http://www.w3.org/1999/xlink" x="0px" y="0px"
	 viewBox="0 0 900 811.1" style="enable-background:new 0 0 900 811.1;" xml:space="preserve">
<style type="text/css">
	.st0{fill:#276683;}
	.st1{fill:#CDDFC0;stroke:#26627E;stroke-width:4.5722;stroke-miterlimit:10;}
	.st2{fill:#FFFFFF;stroke:#26627E;stroke-width:4.5722;stroke-miterlimit:10;}
	.st3{fill:#FFFFFF;}
</style>
<g>
	<circle class="st0" cx="445.2" cy="409.7" r="250.6"/>
	<g>
		<path class="st1" d="M718.4,195.7c-5.6-70.3-65.3-127.6-132.9-127.8c-0.1,0-0.3,0-0.4,0c-66.7,0-126.4,57.1-133.2,127.4l-14.7,0.4
			v57.6h302v-57.6H718.4z M585.1,122.8c0.1,0,0.1,0,0.2,0c37.7,0.1,72.4,33.1,77.8,73h-156C513.5,155.7,548,122.8,585.1,122.8z"/>
		<rect x="437.5" y="272.8" class="st1" width="298.1" height="67.7"/>
		<polygon class="st0" points="59.4,604.3 60.6,576.9 55.9,576.7 54.7,604.3 27.1,604.3 27.1,608.5 54.5,608.5 53.5,631.5 
			58.2,631.7 59.2,608.5 82.3,608.5 82.3,604.3 		"/>
		<polygon class="st0" points="800.8,727.4 801.7,705.7 798,705.5 797,727.4 775.1,727.4 775.1,730.8 796.9,730.8 796.1,749.1 
			799.8,749.2 800.6,730.8 818.9,730.8 818.9,727.4 		"/>
		<polygon class="st0" points="831.4,103.6 832.3,82.6 828.7,82.5 827.8,103.6 806.6,103.6 806.6,106.9 827.6,106.9 826.9,124.5 
			830.5,124.6 831.3,106.9 848.9,106.9 848.9,103.6 		"/>
		<path class="st0" d="M113.8,103.1c-13.5,0-24.5-11-24.5-24.5s11-24.5,24.5-24.5s24.5,11,24.5,24.5S127.3,103.1,113.8,103.1z
			 M113.8,60.3c-10.1,0-18.3,8.2-18.3,18.3s8.2,18.3,18.3,18.3s18.3-8.2,18.3-18.3S123.9,60.3,113.8,60.3z"/>
		<path class="st0" d="M28.6,310.9c-13.5,0-24.5-11-24.5-24.5s11-24.5,24.5-24.5s24.5,11,24.5,24.5S42.1,310.9,28.6,310.9z
			 M28.6,268.1c-10.1,0-18.3,8.2-18.3,18.3s8.2,18.3,18.3,18.3s18.3-8.2,18.3-18.3S38.7,268.1,28.6,268.1z"/>
		<path class="st0" d="M871.4,356.5c-13.5,0-24.5-11-24.5-24.5c0-13.5,11-24.5,24.5-24.5c13.5,0,24.5,11,24.5,24.5
			C895.9,345.5,884.9,356.5,871.4,356.5z M871.4,313.6c-10.1,0-18.3,8.2-18.3,18.3c0,10.1,8.2,18.3,18.3,18.3
			c10.1,0,18.3-8.2,18.3-18.3C889.7,321.9,881.5,313.6,871.4,313.6z"/>
		<g>
			<g>
				<path class="st0" d="M701.5,639.7c-2.5,2.9-5.2,5.6-7.7,8.5c-5.1,5.7-10.7,10.9-16.1,16.3l7.6,8.4c5.6-5.5,11.4-10.9,16.7-16.8
					c2.7-2.9,5.4-5.8,8-8.7l7.6-9.1l-8.6-7.3L701.5,639.7z"/>
				<path class="st0" d="M321.3,731.8l-4.3,10.7c14.4,5.7,29,10.9,44.1,14.6l2.9-11.1C349.4,742.3,335.2,737.3,321.3,731.8z"/>
				<path class="st0" d="M272.9,707l-5.9,9.9c6.5,4.3,13.4,7.8,20.1,11.6c7,3.4,13.8,7.1,20.9,10.1l4.6-10.6
					c-6.9-2.9-13.5-6.5-20.3-9.8C285.9,714.5,279.2,711.1,272.9,707z"/>
				<path class="st0" d="M221.7,683.4c11.6,10.3,24.2,19.5,37,28.2l6.2-9.7c-12.4-8.4-24.6-17.3-35.8-27.3L221.7,683.4z"/>
				<path class="st0" d="M198.2,644.2l-7.3-8.6l-8.6,7.5l7.6,8.9l8,8.5c5.2,5.8,11,11,16.6,16.4l7.6-8.6c-5.4-5.3-11-10.3-16-15.9
					L198.2,644.2z"/>
				<path class="st0" d="M149.7,596.7c8.1,13.4,16.7,26.5,26.4,38.7l8.8-7.3c-9.4-11.8-17.7-24.5-25.6-37.5L149.7,596.7z"/>
				<path class="st0" d="M135.4,541.1l-10.5,4.4c5.7,14.6,12.2,29,19.9,42.7l9.8-5.7C147.3,569.1,141,555.2,135.4,541.1z"/>
				<path class="st0" d="M136.6,256.6l10.1,5c6.5-13.9,14.3-27.2,22.6-40.1l-9.3-6.3C151.3,228.5,143.3,242.2,136.6,256.6z"/>
				<path class="st0" d="M179.6,187.8c-4.7,6.4-9.7,12.5-14.1,19.1l9.1,6.6c4.2-6.4,9.1-12.3,13.6-18.5c5-5.8,9.6-11.9,14.9-17.4
					l-8.2-7.8C189.5,175.5,184.8,181.8,179.6,187.8z"/>
				<path class="st0" d="M236.7,130.7c-12.4,9.7-23.9,20.6-34.9,31.8l8,8c10.7-10.9,21.8-21.4,33.8-30.8L236.7,130.7z"/>
				<path class="st0" d="M339.1,86l-3.6-10.8c-14.6,5.5-29.1,11.5-42.9,19l5,10.2C311,97.1,325,91.3,339.1,86z"/>
				<path class="st0" d="M391.9,71.6L390,60.3c-15.3,2.8-30.4,6.8-45.2,11.7l3.3,10.9C362.5,78.2,377.1,74.3,391.9,71.6z"/>
				<path class="st0" d="M446.1,65.9L446,54.4c-15.5,0.3-31,1.9-46.4,4.2l1.6,11.4C416.1,67.7,431.1,66.2,446.1,65.9z"/>
				<path class="st0" d="M500.4,69.1l1.7-11.4c-15.3-2-30.8-3.5-46.3-3.4l-0.2,11.5C470.6,65.8,485.5,67.1,500.4,69.1z"/>
				<path class="st0" d="M784.5,303.8c-4.6-15.1-10-29.9-16.4-44.2l-10.2,4.9c6.2,13.9,11.4,28.2,15.9,42.8L784.5,303.8z"/>
				<path class="st0" d="M785.3,361.4l11.2-1.7c-2.1-15.7-5.1-31.2-9.3-46.4l-10.9,3.2C780.4,331.2,783.3,346.3,785.3,361.4z"/>
				<path class="st0" d="M764.7,535.1c-5.7,14.3-11.9,28.3-19.4,41.7l9.8,5.5c7.8-13.8,14.2-28.4,20.1-43.1L764.7,535.1z"/>
				<path class="st0" d="M728.3,604.7c-2.2,3.1-4.2,6.4-6.5,9.5l-6.9,9.2l8.8,7.1l7.1-9.5c2.3-3.2,4.5-6.5,6.7-9.8
					c4.6-6.5,8.5-13.3,12.7-20.1l-9.6-5.8C736.5,591.8,732.7,598.5,728.3,604.7z"/>
			</g>
		</g>
		<rect x="115.8" y="341.3" class="st1" width="136.2" height="136.2"/>
		<rect x="253.1" y="205.8" class="st2" width="134.6" height="134.6"/>
		
			<rect x="360.8" y="681.8" transform="matrix(0.5139 -0.8578 0.8578 0.5139 -379.0648 699.1836)" class="st0" width="133.3" height="4.6"/>
		<path class="st0" d="M610,742.6c-29.7-44.4-75-111.6-78.1-114.7l1.5-1.5l-0.1-0.2H531l1.6-2.2c2.1-0.6,2.8-1,81.2,116.1L610,742.6
			z"/>
		<rect x="496.7" y="627.7" class="st0" width="4.6" height="117.5"/>
		<path class="st2" d="M654.2,626.9H342.3c-7.2,0-13-5.8-13-13V397c0-7.2,5.8-13,13-13h311.8c7.2,0,13,5.8,13,13v216.9
			C667.1,621.1,661.3,626.9,654.2,626.9z"/>
		<path class="st2" d="M637,611.3H360.2c-7.2,0-13-5.8-13-13V415.7c0-7.2,5.8-13,13-13H637c7.2,0,13,5.8,13,13v182.6
			C650,605.5,644.2,611.3,637,611.3z"/>
		<path class="st0" d="M605.1,556H438.4V420.5L605.1,556z M442.9,551.4h149.3L442.9,430.1V551.4z"/>
		<polygon class="st0" points="459,553.2 454.4,553.2 454.4,537.7 442.1,537.7 442.1,533.1 459,533.1 		"/>
		<path class="st0" d="M568.4,554.4h-4.6c0-12.4,8.3-18.1,12.7-19.4l1.3,4.4C577.5,539.5,568.4,542.4,568.4,554.4z"/>
		<g>
			<g>
				<path class="st0" d="M69.8,357.7c2.6-0.4,7.7-0.9,12.6-0.9c6,0,9.6,0.6,12.8,2.4c3,1.6,5.1,4.5,5.1,8.5c0,3.8-2.2,7.3-7.1,9.2
					v0.1c4.9,1.3,8.6,5.1,8.6,10.6c0,4-1.8,7-4.5,9.2c-3.1,2.5-8.4,3.9-17,3.9c-4.8,0-8.4-0.3-10.6-0.6V357.7z M79.4,374.3h3.2
					c5.2,0,7.9-2.1,7.9-5.3c0-3.3-2.5-5-6.9-5c-2.2,0-3.4,0.1-4.2,0.3V374.3z M79.4,393.4c1,0.1,2.1,0.1,3.8,0.1
					c4.4,0,8.3-1.7,8.3-6.3c0-4.3-3.9-6-8.8-6h-3.3V393.4z"/>
			</g>
		</g>
		<g>
			<g>
				<path class="st3" d="M301.4,398c-1.7,0.8-5.8,1.9-11,1.9c-14.9,0-22.6-9.4-22.6-21.6c0-14.7,10.5-22.9,23.6-22.9
					c5.1,0,8.9,1,10.6,1.9l-2,7.7c-1.9-0.8-4.7-1.6-8.2-1.6c-7.7,0-13.7,4.7-13.7,14.3c0,8.6,5.1,14.1,13.8,14.1
					c3,0,6.2-0.6,8.2-1.4L301.4,398z"/>
			</g>
		</g>
		<g>
			<g>
				<path class="st0" d="M420.8,513.8c0,2.9,0.1,5.8,0.5,7.6h-8.8l-0.6-3.1h-0.2c-2,2.5-5.3,3.8-9,3.8c-6.3,0-10.1-4.6-10.1-9.6
					c0-8.1,7.3-12,18.4-12v-0.4c0-1.7-0.9-4.1-5.7-4.1c-3.2,0-6.6,1.1-8.6,2.4l-1.8-6.3c2.2-1.2,6.5-2.8,12.2-2.8
					c10.4,0,13.7,6.1,13.7,13.6V513.8z M411.4,506.6c-5.1,0-9.1,1.2-9.1,4.9c0,2.5,1.7,3.7,3.8,3.7c2.4,0,4.4-1.6,5.1-3.6
					c0.1-0.5,0.2-1.1,0.2-1.7V506.6z"/>
			</g>
		</g>
		<g>
			<g>
				<path class="st0" d="M537.3,596.8c-1.7,0.8-5,1.5-8.7,1.5c-10.1,0-16.6-6.2-16.6-16c0-9.2,6.3-16.7,17.9-16.7
					c2.6,0,5.4,0.4,7.4,1.2l-1.5,7.2c-1.2-0.5-2.9-1-5.4-1c-5.1,0-8.5,3.7-8.4,8.8c0,5.7,3.8,8.8,8.6,8.8c2.3,0,4.1-0.4,5.6-1
					L537.3,596.8z"/>
			</g>
		</g>
		<g>
			<g>
				<path class="st0" d="M513.8,437h9.7v17.9h0.1c1.9-2.7,5.1-4.4,9.5-4.4c7.5,0,12.9,6.2,12.9,15.8c0,11.3-7.1,16.9-14.3,16.9
					c-3.6,0-7.2-1.3-9.4-5.1h-0.1l-0.4,4.4h-8.3c0.1-2,0.3-5.8,0.3-9.3V437z M523.6,469.1c0,0.6,0.1,1.2,0.2,1.7
					c0.6,2.6,2.9,4.6,5.7,4.6c4.2,0,6.7-3.2,6.7-8.8c0-4.9-2.2-8.7-6.7-8.7c-2.6,0-5.1,2-5.7,4.8c-0.1,0.6-0.2,1.2-0.2,1.8V469.1z"
					/>
			</g>
		</g>
		<g>
			<g>
				<path class="st0" d="M275.2,175.6l-3.1,11.1H262l13.1-43.2H288l13.4,43.2h-10.6l-3.3-11.1H275.2z M286.1,168.3l-2.7-9.2
					c-0.8-2.6-1.5-5.8-2.2-8.3h-0.1c-0.6,2.6-1.3,5.8-2,8.3l-2.6,9.2H286.1z"/>
			</g>
		</g>
		<rect x="459.1" y="277.1" class="st0" width="4.3" height="23.3"/>
		<rect x="484.6" y="274.7" class="st0" width="4.3" height="23"/>
		<rect x="510" y="275.1" class="st0" width="4.3" height="28.4"/>
		<rect x="535.5" y="275.1" class="st0" width="4.3" height="20.2"/>
		<rect x="560.9" y="273.9" class="st0" width="4.3" height="27.2"/>
		<rect x="586.4" y="276.3" class="st0" width="4.3" height="18.7"/>
		<rect x="611.8" y="274.7" class="st0" width="4.3" height="29.6"/>
		<rect x="637.3" y="275.9" class="st0" width="4.3" height="22.2"/>
		<rect x="662.7" y="274.7" class="st0" width="4.3" height="29.2"/>
		<rect x="688.2" y="275.5" class="st0" width="4.3" height="19.8"/>
		<rect x="713.6" y="272.8" class="st0" width="4.3" height="27.2"/>
		<rect x="713.6" y="231.6" class="st0" width="4.3" height="23.3"/>
		<rect x="688.2" y="232" class="st0" width="4.3" height="23"/>
		<rect x="662.7" y="226.6" class="st0" width="4.3" height="28.4"/>
		<rect x="637.3" y="234.7" class="st0" width="4.3" height="20.2"/>
		<rect x="611.8" y="227.7" class="st0" width="4.3" height="27.2"/>
		<rect x="586.4" y="236.3" class="st0" width="4.3" height="18.7"/>
		<rect x="560.9" y="225.4" class="st0" width="4.3" height="29.6"/>
		<rect x="535.5" y="232.8" class="st0" width="4.3" height="22.2"/>
		<rect x="510" y="225.8" class="st0" width="4.3" height="29.2"/>
		<rect x="484.6" y="235.1" class="st0" width="4.3" height="19.8"/>
		<rect x="459.1" y="227.7" class="st0" width="4.3" height="27.2"/>
		<path class="st0" d="M459.9,160.7c0.6-0.2,21.4,9.7,21.4,9.7"/>
		<line class="st0" x1="494.2" y1="173" x2="511.3" y2="181.1"/>
		<line class="st0" x1="474.9" y1="132.7" x2="496.9" y2="146.9"/>
		<line class="st0" x1="505.3" y1="151" x2="519.3" y2="162.1"/>
		<line class="st0" x1="494.4" y1="106.8" x2="512.6" y2="124.9"/>
		<line class="st0" x1="519.3" y1="130.9" x2="532.3" y2="144.2"/>
		<line class="st0" x1="519.8" y1="87.4" x2="533.5" y2="110.1"/>
		<line class="st0" x1="538.9" y1="116.9" x2="548.8" y2="133.9"/>
		<line class="st0" x1="549.6" y1="73.5" x2="558.4" y2="94.8"/>
		<line class="st0" x1="561.3" y1="105.1" x2="566.5" y2="124.9"/>
		<path class="st0" d="M585,69.1c0,6.6-0.4,23.9-0.4,23.9"/>
		<path class="st0" d="M585.2,105.1c0,0.6-1,16.7-1,16.7"/>
		<path class="st0" d="M624.1,73.5c-1,1.2-12.1,21.2-12.1,21.2"/>
		<line class="st0" x1="609.5" y1="107.6" x2="601" y2="125.3"/>
		<line class="st0" x1="651.4" y1="85.8" x2="635.2" y2="108.2"/>
		<path class="st0" d="M630.9,116.7c-0.2,0.6-9.1,14.6-9.1,14.6"/>
		<line class="st0" x1="674.9" y1="105.6" x2="658.6" y2="125.3"/>
		<line class="st0" x1="651.2" y1="133.5" x2="637.8" y2="144.9"/>
		<line class="st0" x1="696.3" y1="132.5" x2="675.5" y2="146.1"/>
		<path class="st0" d="M664.4,151.6c-2.7,1.6-14.2,8.9-14.2,8.9"/>
		<line class="st0" x1="711.9" y1="159.7" x2="685.8" y2="170.2"/>
		<line class="st0" x1="675.5" y1="171.6" x2="659.2" y2="180.6"/>
	</g>
</g>
</svg>
