<?xml version="1.0" encoding="utf-8"?>
<!-- Generator: Adobe Illustrator 23.0.3, SVG Export Plug-In . SVG Version: 6.00 Build 0)  -->
<svg version="1.1" id="Capa_1" xmlns="http://www.w3.org/2000/svg" xmlns:xlink="http://www.w3.org/1999/xlink" x="0px" y="0px"
	 viewBox="0 0 900 811.1" style="enable-background:new 0 0 900 811.1;" xml:space="preserve">
<style type="text/css">
	.st0{fill:#33878E;}
	.st1{fill:#CDDFC0;stroke:#328086;stroke-width:4.8133;stroke-miterlimit:10;}
	.st2{fill:#FFFFFF;stroke:#328086;stroke-width:4.8133;stroke-miterlimit:10;}
	.st3{fill:#FFFFFF;}
	.st4{fill:#328086;}
	.st5{fill:none;stroke:#328086;stroke-width:4.8133;stroke-miterlimit:10;}
	.st6{fill-rule:evenodd;clip-rule:evenodd;fill:#33878E;}
</style>
<g>
	<circle class="st0" cx="417" cy="424.2" r="263.8"/>
	<g>
		<path class="st1" d="M543.2,89.6H471c-22.6,0-40.9,18.3-40.9,40.9v72.2c0,22.6,18.3,40.9,40.9,40.9h72.2
			c22.6,0,40.9-18.3,40.9-40.9v-72.2C584.1,107.9,565.8,89.6,543.2,89.6z M552.3,179.8h-90.3v-26.4h90.3V179.8z"/>
		<path class="st1" d="M362.1,653.6h-233c-15.1,0-27.3-12.2-27.3-27.3V319c0-15.1,12.2-27.3,27.3-27.3h233
			c15.1,0,27.3,12.2,27.3,27.3v307.3C389.4,641.4,377.2,653.6,362.1,653.6z"/>
		<rect x="123.3" y="312" class="st2" width="244.6" height="321.4"/>
		<path class="st1" d="M357.9,89.6h-72.2c-22.6,0-40.9,18.3-40.9,40.9v72.2c0,22.6,18.3,40.9,40.9,40.9h72.2
			c22.6,0,40.9-18.3,40.9-40.9v-72.2C398.9,107.9,380.5,89.6,357.9,89.6z M367,179.8h-32v32h-26.4v-32h-32v-26.4h32v-32h26.4v32h32
			V179.8z"/>
		<g>
			<g>
				<ellipse class="st2" cx="230.1" cy="354.1" rx="10.9" ry="18.4"/>
				<ellipse class="st2" cx="258.5" cy="354.1" rx="10.9" ry="18.4"/>
				<ellipse class="st2" cx="286.8" cy="354.1" rx="10.9" ry="18.4"/>
				<ellipse class="st2" cx="315.1" cy="354.1" rx="10.9" ry="18.4"/>
				<ellipse class="st2" cx="343.5" cy="354.1" rx="10.9" ry="18.4"/>
			</g>
			<g>
				<g>
					<line class="st3" x1="353.8" y1="354.1" x2="367.3" y2="354.1"/>
					<rect x="353.8" y="351.7" class="st4" width="13.5" height="4.8"/>
				</g>
				<g>
					<line class="st3" x1="326.4" y1="354.1" x2="332.9" y2="354.1"/>
					<rect x="326.4" y="351.7" class="st4" width="6.5" height="4.8"/>
				</g>
				<g>
					<line class="st3" x1="296.9" y1="354.1" x2="304.6" y2="354.1"/>
					<rect x="296.9" y="351.7" class="st4" width="7.7" height="4.8"/>
				</g>
				<g>
					<line class="st3" x1="268.4" y1="354.1" x2="276.7" y2="354.1"/>
					<rect x="268.4" y="351.7" class="st4" width="8.3" height="4.8"/>
				</g>
				<g>
					<line class="st3" x1="241.3" y1="354.1" x2="248.7" y2="354.1"/>
					<rect x="241.3" y="351.7" class="st4" width="7.4" height="4.8"/>
				</g>
				<g>
					<line class="st3" x1="124" y1="354.1" x2="219.2" y2="354.1"/>
					<rect x="124" y="351.7" class="st4" width="95.2" height="4.8"/>
				</g>
			</g>
			<g>
				<ellipse class="st2" cx="230.1" cy="398.9" rx="10.9" ry="18.4"/>
				<ellipse class="st2" cx="258.5" cy="398.9" rx="10.9" ry="18.4"/>
				<ellipse class="st2" cx="286.8" cy="398.9" rx="10.9" ry="18.4"/>
				<ellipse class="st2" cx="315.1" cy="398.9" rx="10.9" ry="18.4"/>
				<ellipse class="st2" cx="343.5" cy="398.9" rx="10.9" ry="18.4"/>
			</g>
			<g>
				<g>
					<line class="st3" x1="353.8" y1="398.9" x2="367.3" y2="398.9"/>
					<rect x="353.8" y="396.5" class="st4" width="13.5" height="4.8"/>
				</g>
				<g>
					<line class="st3" x1="326.4" y1="398.9" x2="332.9" y2="398.9"/>
					<rect x="326.4" y="396.5" class="st4" width="6.5" height="4.8"/>
				</g>
				<g>
					<line class="st3" x1="296.9" y1="398.9" x2="304.6" y2="398.9"/>
					<rect x="296.9" y="396.5" class="st4" width="7.7" height="4.8"/>
				</g>
				<g>
					<line class="st3" x1="268.4" y1="398.9" x2="276.7" y2="398.9"/>
					<rect x="268.4" y="396.5" class="st4" width="8.3" height="4.8"/>
				</g>
				<g>
					<line class="st3" x1="241.3" y1="398.9" x2="248.7" y2="398.9"/>
					<rect x="241.3" y="396.5" class="st4" width="7.4" height="4.8"/>
				</g>
				<g>
					<line class="st3" x1="124" y1="398.9" x2="219.2" y2="398.9"/>
					<rect x="124" y="396.5" class="st4" width="95.2" height="4.8"/>
				</g>
			</g>
			<g>
				<ellipse class="st2" cx="230.1" cy="446.5" rx="10.9" ry="18.4"/>
				<ellipse class="st2" cx="258.5" cy="446.5" rx="10.9" ry="18.4"/>
				<ellipse class="st2" cx="286.8" cy="446.5" rx="10.9" ry="18.4"/>
				<ellipse class="st2" cx="315.1" cy="446.5" rx="10.9" ry="18.4"/>
				<ellipse class="st2" cx="343.5" cy="446.5" rx="10.9" ry="18.4"/>
			</g>
			<g>
				<g>
					<line class="st3" x1="353.8" y1="446.5" x2="367.3" y2="446.5"/>
					<rect x="353.8" y="444.1" class="st4" width="13.5" height="4.8"/>
				</g>
				<g>
					<line class="st3" x1="326.4" y1="446.5" x2="332.9" y2="446.5"/>
					<rect x="326.4" y="444.1" class="st4" width="6.5" height="4.8"/>
				</g>
				<g>
					<line class="st3" x1="296.9" y1="446.5" x2="304.6" y2="446.5"/>
					<rect x="296.9" y="444.1" class="st4" width="7.7" height="4.8"/>
				</g>
				<g>
					<line class="st3" x1="268.4" y1="446.5" x2="276.7" y2="446.5"/>
					<rect x="268.4" y="444.1" class="st4" width="8.3" height="4.8"/>
				</g>
				<g>
					<line class="st3" x1="241.3" y1="446.5" x2="248.7" y2="446.5"/>
					<rect x="241.3" y="444.1" class="st4" width="7.4" height="4.8"/>
				</g>
				<g>
					<line class="st3" x1="124" y1="446.5" x2="219.2" y2="446.5"/>
					<rect x="124" y="444.1" class="st4" width="95.2" height="4.8"/>
				</g>
			</g>
			<ellipse class="st2" cx="230.1" cy="542.7" rx="10.9" ry="18.4"/>
			<ellipse class="st2" cx="258.5" cy="542.7" rx="10.9" ry="18.4"/>
			<ellipse class="st2" cx="286.8" cy="542.7" rx="10.9" ry="18.4"/>
			<ellipse class="st2" cx="315.1" cy="542.7" rx="10.9" ry="18.4"/>
			<ellipse class="st2" cx="343.5" cy="542.7" rx="10.9" ry="18.4"/>
			<g>
				<line class="st3" x1="326.4" y1="542.7" x2="332.9" y2="542.7"/>
				<rect x="326.4" y="540.3" class="st4" width="6.5" height="4.8"/>
			</g>
			<g>
				<line class="st3" x1="296.9" y1="542.7" x2="304.6" y2="542.7"/>
				<rect x="296.9" y="540.3" class="st4" width="7.7" height="4.8"/>
			</g>
			<ellipse class="st2" cx="315.1" cy="494.4" rx="10.9" ry="18.4"/>
			<ellipse class="st2" cx="343.5" cy="494.4" rx="10.9" ry="18.4"/>
			<g>
				<line class="st3" x1="326.4" y1="494.4" x2="332.9" y2="494.4"/>
				<rect x="326.4" y="492" class="st4" width="6.5" height="4.8"/>
			</g>
			<g>
				<line class="st3" x1="125.5" y1="494.4" x2="304.6" y2="494.4"/>
				<rect x="125.5" y="492" class="st4" width="179.1" height="4.8"/>
			</g>
			<g>
				<line class="st3" x1="268.4" y1="542.7" x2="276.7" y2="542.7"/>
				<rect x="268.4" y="540.3" class="st4" width="8.3" height="4.8"/>
			</g>
			<g>
				<line class="st3" x1="241.3" y1="542.7" x2="248.7" y2="542.7"/>
				<rect x="241.3" y="540.3" class="st4" width="7.4" height="4.8"/>
			</g>
			<g>
				<line class="st3" x1="124" y1="542.7" x2="219.2" y2="542.7"/>
				<rect x="124" y="540.3" class="st4" width="95.2" height="4.8"/>
			</g>
			<g>
				<ellipse class="st2" cx="230.1" cy="591.3" rx="10.9" ry="18.4"/>
				<ellipse class="st2" cx="258.5" cy="591.3" rx="10.9" ry="18.4"/>
				<ellipse class="st2" cx="286.8" cy="591.3" rx="10.9" ry="18.4"/>
				<ellipse class="st2" cx="315.1" cy="591.3" rx="10.9" ry="18.4"/>
				<ellipse class="st2" cx="343.5" cy="591.3" rx="10.9" ry="18.4"/>
			</g>
			<g>
				<g>
					<line class="st3" x1="353.8" y1="591.3" x2="367.3" y2="591.3"/>
					<rect x="353.8" y="588.8" class="st4" width="13.5" height="4.8"/>
				</g>
				<g>
					<line class="st3" x1="326.4" y1="591.3" x2="332.9" y2="591.3"/>
					<rect x="326.4" y="588.8" class="st4" width="6.5" height="4.8"/>
				</g>
				<g>
					<line class="st3" x1="296.9" y1="591.3" x2="304.6" y2="591.3"/>
					<rect x="296.9" y="588.8" class="st4" width="7.7" height="4.8"/>
				</g>
				<g>
					<line class="st3" x1="268.4" y1="591.3" x2="276.7" y2="591.3"/>
					<rect x="268.4" y="588.8" class="st4" width="8.3" height="4.8"/>
				</g>
				<g>
					<line class="st3" x1="241.3" y1="591.3" x2="248.7" y2="591.3"/>
					<rect x="241.3" y="588.8" class="st4" width="7.4" height="4.8"/>
				</g>
				<g>
					<line class="st3" x1="124" y1="591.3" x2="219.2" y2="591.3"/>
					<rect x="124" y="588.8" class="st4" width="95.2" height="4.8"/>
				</g>
			</g>
		</g>
		<path class="st2" d="M738.5,697.1H452.8c-15.1,0-27.3-12.2-27.3-27.3v-351c0-15.1,12.2-27.3,27.3-27.3h285.7V697.1z"/>
		<line class="st5" x1="455" y1="291.6" x2="451.5" y2="695.8"/>
		<line class="st5" x1="482.9" y1="366.1" x2="715.2" y2="366.1"/>
		<line class="st5" x1="482.9" y1="482.3" x2="715.2" y2="482.3"/>
		<path class="st5" d="M490.3,459.7c0,0,1.8-46.2,1.8-64.4c0-17.2,20.9,54.5,25.8,64.4c5.5-11.7,25.8-81.5,25.8-64.4
			c0,31,3.7,64.4,3.7,64.4"/>
		<polyline class="st5" points="563.4,459.7 585.5,395.3 612.5,459.7 		"/>
		<line class="st5" x1="568.3" y1="437.4" x2="601.5" y2="437.4"/>
		<line class="st5" x1="606.4" y1="395.3" x2="653.7" y2="395.3"/>
		<line class="st5" x1="629.7" y1="459.7" x2="629.7" y2="395.3"/>
		<line class="st5" x1="665.4" y1="425.1" x2="704.7" y2="425.1"/>
		<line class="st5" x1="666" y1="395.3" x2="666" y2="459.7"/>
		<line class="st5" x1="704.1" y1="395.3" x2="704.1" y2="459.7"/>
		<path class="st1" d="M650,280.1h44.2c0,0-1.2,70.7,0,70.7s-20.9-20.9-20.9-20.9l-23,23L650,280.1z"/>
		<circle class="st1" cx="596.6" cy="588" r="73.7"/>
		<line class="st5" x1="505" y1="584.9" x2="693" y2="584.9"/>
		<polyline class="st5" points="596.6,495.8 596.6,538.8 596.6,683.8 		"/>
		<line class="st5" x1="615.6" y1="519.1" x2="598.7" y2="536"/>
		<line class="st5" x1="663.9" y1="566.2" x2="647" y2="583.1"/>
		<line class="st5" x1="635.3" y1="524.4" x2="595.3" y2="564.3"/>
		<line class="st5" x1="647.3" y1="535.7" x2="598.4" y2="584.6"/>
		<line class="st5" x1="659.6" y1="546.8" x2="619.6" y2="586.7"/>
		<g>
			<g>
				<g>
					<line class="st0" x1="238.9" y1="472.7" x2="252.4" y2="472.7"/>
					<rect x="238.9" y="470.3" class="st0" width="13.5" height="4.8"/>
				</g>
				<g>
					<line class="st0" x1="238.9" y1="472.7" x2="252.4" y2="472.7"/>
					<rect x="238.9" y="470.3" class="st0" width="13.5" height="4.8"/>
				</g>
				<path class="st6" d="M767.4,457.3l11.6,1.7c1-8,2.2-16,2.7-24.1c0.3-4,0.7-8.1,0.8-12.1l0.3-12.1l-11.7-0.2l-0.3,11.7
					c-0.2,3.9-0.6,7.8-0.8,11.7C769.6,441.8,768.4,449.6,767.4,457.3z"/>
				<path class="st6" d="M520.6,742.6l3.4,11.2c15.4-4.9,30.7-10.3,45.4-17.2l-4.9-10.7C550.3,732.7,535.5,737.9,520.6,742.6z"/>
				<path class="st6" d="M465.1,754.6l1.6,11.6c8.1-0.8,16-2.6,23.9-3.9c7.9-1.8,15.8-3.4,23.6-5.7l-3.1-11.3
					c-7.5,2.2-15.2,3.7-22.8,5.5C480.5,752,472.9,753.8,465.1,754.6z"/>
				<path class="st6" d="M408.4,757.6l-0.3,11.7c16.2,0.6,32.3-0.3,48.4-1.8l-1.2-11.7C439.7,757.2,424,758.2,408.4,757.6z"/>
				<path class="st6" d="M351.9,751.6l-2.2,11.5l12,2.1l12,1.6c8,1.2,16.1,1.5,24.2,2.2l0.6-11.7c-7.8-0.7-15.6-0.9-23.4-2.1
					l-11.6-1.5L351.9,751.6z"/>
				<path class="st6" d="M297.1,736.7l-4,11c15.3,5.3,30.8,10.1,46.6,13.4l2.5-11.5C326.9,746.4,311.9,741.8,297.1,736.7z"/>
				<path class="st6" d="M245.4,713.1l-5.7,10.3c14.2,7.8,28.8,14.9,43.9,20.7l4.3-10.9C273.3,727.5,259.1,720.7,245.4,713.1z"/>
				<path class="st6" d="M65.8,438.7l-11.7,1.1c1.6,16.1,4,32.2,7.8,47.9l11.4-2.7C69.7,469.8,67.4,454.2,65.8,438.7z"/>
				<path class="st6" d="M65.1,381.9l-11.7-0.8c-0.8,8.1-0.6,16.2-0.9,24.2c0.3,8.1,0.1,16.2,0.9,24.2l11.7-0.8
					c-0.7-7.8-0.6-15.6-0.9-23.5C64.6,397.5,64.4,389.7,65.1,381.9z"/>
				<path class="st6" d="M73.5,325.7L62,323c-3.8,15.7-6.2,31.8-7.8,47.9l11.7,1.1C67.5,356.5,69.7,340.9,73.5,325.7z"/>
				<path class="st6" d="M116.6,221l-10-6.2c-8.3,13.9-16.2,28-22.6,42.9l10.7,4.8C100.8,248.1,108.5,234.4,116.6,221z"/>
				<path class="st6" d="M150.2,175.3l-8.9-7.7c-10.7,12.1-20.4,25.2-29.3,38.7l9.8,6.5C130.5,199.6,139.9,187.1,150.2,175.3z"/>
				<path class="st6" d="M190.7,135.5l-7.5-9c-12.4,10.4-24.1,21.7-35.1,33.5l8.7,7.9C167.4,156.4,178.7,145.5,190.7,135.5z"/>
				<path class="st6" d="M237.1,102.7l-6-10.1c-13.8,8.4-27.4,17.3-39.9,27.5l7.3,9.2C210.6,119.4,223.7,110.8,237.1,102.7z"/>
				<path class="st6" d="M398.7,53.7l-0.6-11.7c-8.1,0.7-16.2,1-24.2,2.2l-12,1.5l-12,2.1l2.2,11.5l11.6-2.1l11.7-1.5
					C383.1,54.6,390.9,54.4,398.7,53.7z"/>
				<path class="st6" d="M455.5,55.2l1.2-11.7c-16.1-1.5-32.3-2.4-48.4-1.9l0.3,11.7C424.3,52.8,439.9,53.7,455.5,55.2z"/>
				<path class="st6" d="M511.3,65.7l3.1-11.3c-7.8-2.3-15.7-3.8-23.6-5.7c-8-1.3-15.9-3.1-23.9-3.9l-1.6,11.6
					c7.8,0.8,15.5,2.5,23.2,3.8C496.1,62,503.8,63.5,511.3,65.7z"/>
				<path class="st6" d="M614.4,112.6l6.5-9.8c-13.5-8.9-27.5-17.1-42.1-24.2l-5.2,10.5C587.7,96.1,601.3,104.1,614.4,112.6z"/>
				<path class="st6" d="M658.9,147.9l8-8.6c-11.9-11-24.4-21.3-37.6-30.6l-6.8,9.6C635.3,127.3,647.4,137.3,658.9,147.9z"/>
				<path class="st6" d="M697.2,189.8l9.3-7.2c-9.8-12.9-20.8-24.8-32.2-36.3l-8.2,8.4C677,165.8,687.7,177.3,697.2,189.8z"/>
				<path class="st6" d="M728.4,237.2l10.3-5.6c-8-14.1-16.4-27.9-26.1-40.9l-9.5,7C712.5,210.2,720.7,223.6,728.4,237.2z"/>
				<path class="st6" d="M751.5,289.2l11.1-3.9c-1.2-3.9-2.7-7.6-4.2-11.4c-1.5-3.8-2.9-7.6-4.5-11.3c-3.4-7.4-6.5-14.8-10.4-22
					L733,246c3.7,6.9,6.8,14.1,10,21.2c1.5,3.6,2.9,7.3,4.4,10.9C748.9,281.8,750.3,285.4,751.5,289.2z"/>
				<path class="st6" d="M765.8,344.1l11.6-2c-2.6-16-6.8-31.7-11.6-47.1l-11.2,3.6C759.2,313.5,763.3,328.7,765.8,344.1z"/>
				<path class="st6" d="M771.2,400.7l11.7-0.2l-0.3-12.1c-0.1-4-0.6-8.1-0.8-12.1c-0.4-8.1-1.7-16.1-2.7-24.1l-11.6,1.7
					c0.9,7.8,2.2,15.5,2.6,23.3c0.3,3.9,0.7,7.8,0.8,11.7L771.2,400.7z"/>
			</g>
		</g>
		<polygon class="st0" points="750.2,785.3 751.1,761.9 747.5,761.8 746.5,785.3 725,785.3 725,788.9 746.4,788.9 745.6,808.5 
			749.3,808.7 750.1,788.9 768,788.9 768,785.3 		"/>
		<polygon class="st0" points="34,725 35.3,699.2 30.4,699 29.1,725 0.5,725 0.5,729 28.9,729 27.9,750.6 32.8,750.8 33.8,729 
			57.7,729 57.7,725 		"/>
		<path class="st0" d="M79.8,78.5c-21,0-38-17-38-38s17-38,38-38s38,17,38,38S100.8,78.5,79.8,78.5z M79.8,12.1
			c-15.6,0-28.4,12.7-28.4,28.4s12.7,28.4,28.4,28.4s28.4-12.7,28.4-28.4S95.4,12.1,79.8,12.1z"/>
		<path class="st0" d="M873.7,700.3c-14.2,0-25.8-11.6-25.8-25.8s11.6-25.8,25.8-25.8s25.8,11.6,25.8,25.8S887.9,700.3,873.7,700.3z
			 M873.7,655.3c-10.6,0-19.2,8.6-19.2,19.2s8.6,19.2,19.2,19.2s19.2-8.6,19.2-19.2S884.3,655.3,873.7,655.3z"/>
	</g>
</g>
</svg>
