<?xml version="1.0" encoding="utf-8"?>
<!-- Generator: Adobe Illustrator 23.0.3, SVG Export Plug-In . SVG Version: 6.00 Build 0)  -->
<svg version="1.1" id="Capa_1" xmlns="http://www.w3.org/2000/svg" xmlns:xlink="http://www.w3.org/1999/xlink" x="0px" y="0px"
	 viewBox="0 0 500 500" style="enable-background:new 0 0 500 500;" xml:space="preserve">
<style type="text/css">
	.st0{fill:#B6CCD5;}
</style>
<g>
	<path class="st0" d="M19.6,242.7c0,0,61.8-29.9,78.8-37.9c6.3-3,25.6-6.6,27.9,0c16,44.9,40.9,126.6,40.9,126.6l78.8-275.2l225.3-1
		v51.8H294.8c0,0-74.8,243.3-101.7,331c-3.3,10.7-41,7.6-44.9-3c-19.9-53.8-59.8-163.5-59.8-163.5l-43.9,19.9L19.6,242.7z"/>
	<polygon class="st0" points="480.4,226 428.7,226 395.8,283 363,226 311.3,226 370,327.7 311.4,429.1 363.1,429.1 395.8,372.5 
		428.6,429.1 480.2,429.1 421.7,327.7 	"/>
</g>
</svg>
