<?xml version="1.0" encoding="utf-8"?>
<!-- Generator: Adobe Illustrator 23.0.3, SVG Export Plug-In . SVG Version: 6.00 Build 0)  -->
<svg version="1.1" id="Capa_1" xmlns="http://www.w3.org/2000/svg" xmlns:xlink="http://www.w3.org/1999/xlink" x="0px" y="0px"
	 viewBox="0 0 900 811.1" style="enable-background:new 0 0 900 811.1;" xml:space="preserve">
<style type="text/css">
	.st0{fill:#51327B;}
	.st1{fill-rule:evenodd;clip-rule:evenodd;fill:#51327B;}
	.st2{fill:#3D4D6F;}
	.st3{fill:#FFFFFF;stroke:#4D3075;stroke-width:4.743;stroke-miterlimit:10;}
	.st4{fill:#CDDFC0;stroke:#4D3075;stroke-width:4.743;stroke-miterlimit:10;}
</style>
<g>
	<circle class="st0" cx="444" cy="432.6" r="260"/>
	<g>
		<g>
			<g>
				<path class="st1" d="M388.7,757.9l-1.9,11.4c7.9,1.1,15.8,2.5,23.7,3c4,0.3,7.9,0.8,11.9,1l11.9,0.5l0.4-11.6l-11.6-0.5
					c-3.9-0.2-7.7-0.7-11.5-1C404,760.2,396.3,758.9,388.7,757.9z"/>
				<path class="st1" d="M111.5,510.1l-11.1,3.2c4.5,15.3,9.6,30.4,16.2,45l10.6-4.6C120.9,539.6,115.9,524.9,111.5,510.1z"/>
				<path class="st1" d="M100.6,455.2l-11.5,1.3c0.7,7.9,2.3,15.8,3.5,23.7c1.7,7.8,3.1,15.7,5.2,23.3l11.2-2.9
					c-2.1-7.4-3.4-15.1-5-22.6C102.9,470.5,101.3,462.9,100.6,455.2z"/>
				<path class="st1" d="M98.6,399.3L87,398.8c-0.9,15.9-0.2,31.9,1,47.8l11.5-1C98.4,430.2,97.7,414.7,98.6,399.3z"/>
				<path class="st1" d="M105.4,343.8L94,341.5l-2.3,11.7L90,365c-1.3,7.9-1.7,15.8-2.5,23.8l11.5,0.8c0.8-7.7,1.2-15.4,2.4-23
					l1.7-11.5L105.4,343.8z"/>
				<path class="st1" d="M120.9,290l-10.8-4.1c-5.5,15-10.4,30.2-13.9,45.7l11.3,2.6C110.8,319.2,115.6,304.5,120.9,290z"/>
				<path class="st1" d="M418.2,66.9l-0.9-11.5c-15.9,1.4-31.7,3.4-47.3,6.9l2.4,11.3C387.5,70.2,402.8,68.2,418.2,66.9z"/>
				<path class="st1" d="M474.2,67.1l1-11.5c-7.9-0.9-15.9-0.8-23.9-1.3c-8,0.2-15.9-0.1-23.9,0.5l0.6,11.6
					c7.7-0.6,15.4-0.3,23.1-0.5C458.8,66.3,466.5,66.2,474.2,67.1z"/>
				<path class="st1" d="M529.4,76.2l2.8-11.2c-15.4-4-31.2-6.6-47.1-8.5L483.8,68C499.2,69.8,514.4,72.3,529.4,76.2z"/>
				<path class="st1" d="M631.8,120.3l6.2-9.7c-13.5-8.4-27.4-16.4-41.9-23l-4.9,10.5C605.4,104.4,618.8,112.2,631.8,120.3z"/>
				<path class="st1" d="M746.6,240.9l10-5.7c-8-13.8-16.6-27.2-26.5-39.8l-9.2,7C730.4,214.6,738.8,227.6,746.6,240.9z"/>
				<path class="st1" d="M792.2,401l11.6-0.4c-0.6-7.9-0.7-15.9-1.7-23.8l-1.3-11.9l-1.9-11.8l-11.4,1.9l1.8,11.4l1.3,11.5
					C791.6,385.6,791.7,393.3,792.2,401z"/>
				<path class="st1" d="M789.9,456.9l11.5,1.4c1.7-15.8,2.9-31.8,2.6-47.7l-11.6,0.1C792.7,426.1,791.5,441.6,789.9,456.9z"/>
				<path class="st1" d="M778.6,511.7l11.1,3.2c2.4-7.6,4-15.4,6-23.2c1.4-7.8,3.3-15.6,4.3-23.5l-11.4-1.7
					c-0.9,7.7-2.7,15.2-4.1,22.8C782.5,496.8,780.9,504.4,778.6,511.7z"/>
				<path class="st1" d="M730.7,612.5l9.5,6.6c9-13.2,17.3-26.8,24.5-41.1l-10.3-5.3C747.4,586.5,739.4,599.7,730.7,612.5z"/>
				<path class="st1" d="M695.3,655.8l8.3,8c11-11.5,21.4-23.7,30.7-36.6l-9.3-6.8C716,632.9,705.9,644.6,695.3,655.8z"/>
				<path class="st1" d="M554.6,744.8l3.7,11c3.8-1.2,7.6-2.5,11.3-4c3.7-1.4,7.5-2.8,11.2-4.3c7.3-3.2,14.7-6.2,21.8-9.9l-5.1-10.4
					c-6.8,3.6-14,6.4-21.1,9.6c-3.6,1.5-7.2,2.8-10.8,4.1C561.9,742.3,558.3,743.7,554.6,744.8z"/>
				<path class="st1" d="M500.3,758.1l1.8,11.4c15.8-2.3,31.3-6.2,46.6-10.6l-3.3-11.1C530.6,752.1,515.5,755.8,500.3,758.1z"/>
				<path class="st1" d="M444.5,762.4l0,11.6l12-0.1c4-0.1,8-0.4,11.9-0.6c8-0.3,15.9-1.4,23.8-2.2l-1.5-11.5
					c-7.7,0.8-15.3,1.9-23,2.2c-3.9,0.2-7.7,0.5-11.6,0.6L444.5,762.4z"/>
			</g>
		</g>
		<polygon class="st2" points="30.8,340.6 31.8,318.9 28,318.7 27.1,340.6 5.1,340.6 5.1,344 26.9,344 26.1,362.3 29.9,362.5 
			30.7,344 49,344 49,340.6 		"/>
		<polygon class="st2" points="810.6,66 811.5,44.2 807.8,44.1 806.8,66 784.8,66 784.8,69.4 806.7,69.4 805.9,87.6 809.6,87.8 
			810.4,69.4 828.7,69.4 828.7,66 		"/>
		<polygon class="st2" points="808,722.5 809.3,684.8 804.2,684.6 802.9,722.5 773.3,722.5 773.3,728.4 802.7,728.4 801.7,760.1 
			806.7,760.4 807.8,728.4 832.5,728.4 832.5,722.5 		"/>
		<path class="st2" d="M51.8,88c-14,0-25.4-11.4-25.4-25.4s11.4-25.4,25.4-25.4s25.4,11.4,25.4,25.4S65.8,88,51.8,88z M51.8,43.5
			c-10.5,0-19,8.5-19,19s8.5,19,19,19s19-8.5,19-19S62.3,43.5,51.8,43.5z"/>
		<path class="st2" d="M50.8,745.7c-19.7,0-35.7-16-35.7-35.7c0-19.7,16-35.7,35.7-35.7s35.7,16,35.7,35.7
			C86.5,729.7,70.5,745.7,50.8,745.7z M50.8,683.3c-14.7,0-26.7,12-26.7,26.7s12,26.7,26.7,26.7s26.7-12,26.7-26.7
			S65.5,683.3,50.8,683.3z"/>
		<path class="st2" d="M869.1,359.8c-14.2,0-25.7-11.5-25.7-25.7c0-14.2,11.5-25.7,25.7-25.7s25.7,11.5,25.7,25.7
			C894.9,348.3,883.3,359.8,869.1,359.8z M869.1,314.9c-10.6,0-19.2,8.6-19.2,19.2c0,10.6,8.6,19.2,19.2,19.2s19.2-8.6,19.2-19.2
			C888.4,323.5,879.7,314.9,869.1,314.9z"/>
		<g>
			<g>
				<path class="st3" d="M395.2,273c0-0.4-0.1-0.8-0.1-1.2h-68.5l29.6,63.7C379.3,324,395.2,300.4,395.2,273z"/>
			</g>
			<path class="st3" d="M265.4,237h114.2c0,0,0-0.1,0-0.1c0-61.7-50.1-111.8-111.8-111.8S156,175.2,156,236.9S206,348.7,267.8,348.7
				c17.9,0,34.8-4.2,49.8-11.7L265.4,237z"/>
		</g>
		<polygon class="st0" points="493.5,234.9 490.1,231.6 553.4,165.1 615.8,189.4 674.5,148.2 677.2,152 616.5,194.8 554.6,170.7 		
			"/>
		<rect x="448.3" y="113" class="st0" width="4.7" height="250.3"/>
		<rect x="435.3" y="343.1" class="st0" width="289.8" height="4.7"/>
		<path class="st0" d="M466,115.8h-32.7l17.3-38.6l19.3,38.6H466z M440.6,111.1h21.6l-11.4-22.8L440.6,111.1z"/>
		<path class="st0" d="M686,163.6l-25-26.7l40-13.8L686,163.6z M669.5,139l14.7,15.7l8.8-23.9L669.5,139z"/>
		<path class="st0" d="M722.8,360.8l0.7-36.6l38.3,18L722.8,360.8z M728.1,331.6l-0.4,21.6l23-11L728.1,331.6z"/>
		<rect x="666.1" y="179.8" class="st4" width="30.9" height="165"/>
		<rect x="539.8" y="201.6" class="st4" width="30.9" height="143.2"/>
		<rect x="479.9" y="248.8" class="st3" width="30.9" height="96"/>
		<rect x="603.7" y="213.1" class="st3" width="30.9" height="132.1"/>
		<path class="st3" d="M653.4,709.6H237.3c-14.9,0-26.9-12-26.9-26.9V419.2c0-14.9,12-26.9,26.9-26.9h416.1
			c14.9,0,26.9,12,26.9,26.9v263.5C680.3,697.5,668.3,709.6,653.4,709.6z"/>
		<rect x="248" y="442" class="st4" width="187.7" height="127.2"/>
		<rect x="481.7" y="442" class="st3" width="155" height="127.2"/>
		<polygon class="st0" points="369.5,543.2 351.9,474.5 330.5,541.3 321.3,496.3 313.9,532.5 245,532.5 245,528.2 310.4,528.2 
			321.3,474.8 331.4,524.3 352.4,459 369.9,527.2 386.3,473.7 435.7,473.7 435.7,478 389.5,478 		"/>
		<rect x="242.6" y="607.6" class="st0" width="194.7" height="4.7"/>
		<rect x="242.6" y="636.7" class="st0" width="194.7" height="4.7"/>
		<rect x="242.6" y="666.3" class="st0" width="194.7" height="4.7"/>
		<rect x="479.6" y="607.6" class="st0" width="164.7" height="4.7"/>
		<rect x="479.6" y="636.7" class="st0" width="164.7" height="4.7"/>
		<rect x="479.6" y="666.3" class="st0" width="164.7" height="4.7"/>
		<circle class="st4" cx="558.3" cy="506.4" r="43.6"/>
		<polygon class="st0" points="588.9,535.5 556.9,503.5 556.9,464.4 561.6,464.4 561.6,501.5 592.2,532.2 		"/>
	</g>
</g>
</svg>
