<?xml version="1.0" encoding="utf-8"?>
<!-- Generator: Adobe Illustrator 23.0.3, SVG Export Plug-In . SVG Version: 6.00 Build 0)  -->
<svg version="1.1" id="Capa_1" xmlns="http://www.w3.org/2000/svg" xmlns:xlink="http://www.w3.org/1999/xlink" x="0px" y="0px"
	 viewBox="0 0 900 811.1" style="enable-background:new 0 0 900 811.1;" xml:space="preserve">
<style type="text/css">
	.st0{fill:#78497B;}
	.st1{fill-rule:evenodd;clip-rule:evenodd;fill:#78497B;}
	.st2{fill:#3D4D6F;}
	.st3{fill-rule:evenodd;clip-rule:evenodd;fill:#FFFFFF;stroke:#78497B;stroke-width:4.613;stroke-miterlimit:10;}
	.st4{fill-rule:evenodd;clip-rule:evenodd;fill:none;stroke:#78497B;stroke-width:4.613;stroke-miterlimit:10;}
	.st5{fill-rule:evenodd;clip-rule:evenodd;fill:#CDDFC0;stroke:#734676;stroke-width:4.613;stroke-miterlimit:10;}
	.st6{fill-rule:evenodd;clip-rule:evenodd;fill:none;stroke:#78497B;stroke-width:5.4958;stroke-miterlimit:10;}
	.st7{fill:none;stroke:#78497B;stroke-width:4.613;stroke-miterlimit:10;}
	.st8{fill:#FFFFFF;stroke:#78497B;stroke-width:4.613;stroke-miterlimit:10;}
	.st9{fill:#CDDFC0;stroke:#734676;stroke-width:4.613;stroke-miterlimit:10;}
	.st10{fill:none;stroke:#78497B;stroke-width:4.4572;stroke-miterlimit:10;}
</style>
<g>
	<circle class="st0" cx="424.2" cy="401.5" r="252.8"/>
	<g>
		<g>
			<g>
				<path class="st1" d="M129.2,265.7l-10.3-4.7c-3,7.1-6.3,14.1-8.9,21.3c-1.3,3.6-2.8,7.2-4,10.8l-3.5,11l10.8,3.3l3.4-10.6
					c1.2-3.5,2.6-7,3.9-10.5C123.1,279.2,126.3,272.5,129.2,265.7z"/>
				<path class="st1" d="M433.1,71.5l-0.1-11.2c-15.5,0.3-31.1,1.1-46.5,3.5l1.6,11.1C403,72.6,418,71.7,433.1,71.5z"/>
				<path class="st1" d="M487.5,75.5l1.7-11.1c-7.7-1.4-15.4-1.9-23.2-2.9c-7.8-0.4-15.5-1.2-23.3-1.2l-0.2,11.2
					c7.5,0,15,0.7,22.5,1.1C472.6,73.6,480.1,74.1,487.5,75.5z"/>
				<path class="st1" d="M540.6,88l3.4-10.6c-14.8-4.9-29.9-8.4-45.2-11.4l-2,11C511.6,79.9,526.4,83.3,540.6,88z"/>
				<path class="st1" d="M591.2,108.7l5.1-10l-10.5-5.2l-10.7-4.7c-7.1-3.3-14.5-5.7-21.7-8.5L549.7,91c7,2.7,14.2,5.1,21,8.2
					l10.4,4.5L591.2,108.7z"/>
				<path class="st1" d="M637.8,137l6.6-9c-12.7-9-25.7-17.5-39.5-24.8l-5.4,9.8C612.9,120.1,625.5,128.4,637.8,137z"/>
				<path class="st1" d="M771.8,471.6l11.1,2.1c2.8-15.1,4.9-30.4,5.6-45.9l-11.3-0.7C776.5,442.1,774.5,457,771.8,471.6z"/>
				<path class="st1" d="M757.4,523.7l10.6,3.9c2.9-7.2,4.8-14.6,7.3-21.9c1.9-7.5,4.2-14.8,5.6-22.4l-11-2.5
					c-1.4,7.3-3.7,14.4-5.5,21.7C762,509.5,760.1,516.8,757.4,523.7z"/>
				<path class="st1" d="M734.7,572.8l9.9,5.5c7.7-13.3,14.2-27.4,20-41.6l-10.5-4.2C748.4,546.3,742.2,559.9,734.7,572.8z"/>
				<path class="st1" d="M667,656.8l7.6,8.3c11.4-10.4,22.5-21.2,32.3-33.1l-8.6-7.3C688.7,636.3,678,646.7,667,656.8z"/>
				<path class="st1" d="M309.9,717.1l-4.3,10.3c14.5,5.7,29.1,10.9,44.2,14.7l2.9-10.8C338.1,727.7,323.9,722.6,309.9,717.1z"/>
				<path class="st1" d="M261.2,692.4l-5.9,9.5c6.5,4.2,13.5,7.7,20.3,11.5c7,3.4,13.8,7.1,21.1,10l4.5-10.2
					c-7-2.8-13.6-6.5-20.4-9.7C274.3,699.9,267.6,696.5,261.2,692.4z"/>
				<path class="st1" d="M178.6,621.8L170,629c10.1,11.8,20.8,23,32.4,33.4l7.6-8.2C198.8,644.1,188.4,633.2,178.6,621.8z"/>
				<path class="st1" d="M146.9,577.6l-9.7,5.7c8,13.2,16.8,26.1,26.6,38.1l8.8-6.9C163.2,602.8,154.7,590.4,146.9,577.6z"/>
				<path class="st1" d="M99.1,423.6l-11.3,0.6c0.1,3.9,0.5,7.7,0.9,11.5c0.4,3.8,0.7,7.7,1.2,11.5c1.2,7.6,2.1,15.3,3.7,22.8
					l11.1-2.1c-1.6-7.3-2.5-14.7-3.6-22.1c-0.5-3.7-0.8-7.4-1.1-11.1C99.6,431,99.2,427.3,99.1,423.6z"/>
				<path class="st1" d="M100.5,369.5l-11.2-1.3c-1.8,15.3-2.2,30.8-1.9,46.2l11.3-0.3C98.4,399.3,98.7,384.3,100.5,369.5z"/>
				<path class="st1" d="M110.7,316.4l-10.9-3l-2.9,11.2c-0.9,3.7-1.6,7.5-2.5,11.3c-1.7,7.5-2.7,15.2-4,22.8l11.2,1.6
					c1.2-7.4,2.1-14.8,3.8-22c0.8-3.6,1.5-7.3,2.4-10.9L110.7,316.4z"/>
			</g>
		</g>
		<polygon class="st2" points="796.9,90.5 798.3,59.5 792.9,59.3 791.5,90.5 759.6,90.5 759.6,95.4 791.3,95.4 790.1,121.5 
			795.5,121.7 796.7,95.4 823.3,95.4 823.3,90.5 		"/>
		<polygon class="st2" points="816.5,722 817.8,689.1 812.8,688.9 811.6,722 782.5,722 782.5,727.1 811.4,727.1 810.3,754.8 
			815.2,755 816.3,727.1 840.5,727.1 840.5,722 		"/>
		<polygon class="st2" points="31.5,285 32.4,252.2 28.6,252 27.6,285 5.1,285 5.1,290.1 27.5,290.1 26.6,317.7 30.5,317.9 
			31.3,290.1 50.1,290.1 50.1,285 		"/>
		<path class="st2" d="M86.3,106.2c-13.8,0-25-11.2-25-25s11.2-25,25-25s25,11.2,25,25S100.1,106.2,86.3,106.2z M86.3,62.5
			c-10.3,0-18.7,8.4-18.7,18.7S76,99.9,86.3,99.9S105,91.5,105,81.2S96.6,62.5,86.3,62.5z"/>
		<path class="st2" d="M31.3,615c-13.8,0-25-11.2-25-25s11.2-25,25-25s25,11.2,25,25S45.1,615,31.3,615z M31.3,571.3
			c-10.3,0-18.7,8.4-18.7,18.7s8.4,18.7,18.7,18.7S50,600.3,50,590S41.6,571.3,31.3,571.3z"/>
		<path class="st2" d="M869.9,432.9c-13.8,0-25-11.2-25-25c0-13.8,11.2-25,25-25c13.8,0,25,11.2,25,25
			C894.9,421.6,883.7,432.9,869.9,432.9z M869.9,389.1c-10.3,0-18.7,8.4-18.7,18.7c0,10.3,8.4,18.7,18.7,18.7
			c10.3,0,18.7-8.4,18.7-18.7C888.6,397.5,880.2,389.1,869.9,389.1z"/>
		<polygon class="st3" points="363.1,123.3 230.1,123.3 199.4,123.3 141.7,123.3 141.7,556.7 230.1,556.7 230.1,219.7 363.1,219.7 
					"/>
		<line class="st4" x1="144.1" y1="125.6" x2="230.1" y2="219.7"/>
		<path class="st5" d="M360.8,148.8c-4.7,0.4-121.7,0-121.7,0v53.4h121.7"/>
		<rect x="263.4" y="173.3" class="st0" width="100.5" height="4.6"/>
		<path class="st4" d="M221.6,210.3c7.1-7.8,5.6-19.4-1.2-24.3c-5.3-3.9-13.6-3.4-19.6,1.6"/>
		<path class="st6" d="M192.6,123.1c0.5,12.6,11.4,21.1,21.3,19.5c7.7-1.2,14.4-8.6,15.4-17.9"/>
		<line class="st6" x1="140.5" y1="170.4" x2="159.4" y2="170.4"/>
		<line class="st6" x1="140.5" y1="200.4" x2="159.4" y2="200.4"/>
		<line class="st6" x1="140.5" y1="230.4" x2="159.4" y2="230.4"/>
		<line class="st6" x1="140.5" y1="260.4" x2="159.4" y2="260.4"/>
		<line class="st6" x1="140.5" y1="290.4" x2="159.4" y2="290.4"/>
		<line class="st6" x1="140.5" y1="320.5" x2="159.4" y2="320.5"/>
		<line class="st6" x1="140.5" y1="350.5" x2="159.4" y2="350.5"/>
		<line class="st6" x1="140.5" y1="380.5" x2="159.4" y2="380.5"/>
		<line class="st6" x1="140.5" y1="410.5" x2="159.4" y2="410.5"/>
		<line class="st6" x1="140.5" y1="440.5" x2="159.4" y2="440.5"/>
		<line class="st6" x1="140.5" y1="470.5" x2="159.4" y2="470.5"/>
		<line class="st6" x1="140.5" y1="500.6" x2="159.4" y2="500.6"/>
		<line class="st6" x1="140.5" y1="528.1" x2="159.4" y2="528.1"/>
		<line class="st6" x1="211.2" y1="230.4" x2="230.1" y2="230.4"/>
		<line class="st6" x1="211.2" y1="260.4" x2="230.1" y2="260.4"/>
		<line class="st6" x1="211.2" y1="290.4" x2="230.1" y2="290.4"/>
		<line class="st6" x1="211.2" y1="320.5" x2="230.1" y2="320.5"/>
		<line class="st6" x1="211.2" y1="350.5" x2="230.1" y2="350.5"/>
		<line class="st6" x1="211.2" y1="380.5" x2="230.1" y2="380.5"/>
		<line class="st6" x1="211.2" y1="410.5" x2="230.1" y2="410.5"/>
		<line class="st6" x1="211.2" y1="440.5" x2="230.1" y2="440.5"/>
		<line class="st6" x1="211.2" y1="470.5" x2="230.1" y2="470.5"/>
		<line class="st6" x1="211.2" y1="500.6" x2="230.1" y2="500.6"/>
		<line class="st6" x1="211.2" y1="528.1" x2="230.1" y2="528.1"/>
		<circle class="st6" cx="186.5" cy="527.3" r="16.5"/>
		<rect x="231.8" y="219.3" class="st5" width="214.4" height="70.7"/>
		<rect x="233.6" y="290.5" class="st5" width="71.3" height="193.7"/>
		<rect x="452.1" y="338.8" class="st3" width="103.6" height="30.6"/>
		<rect x="454.4" y="369.4" class="st3" width="12.4" height="27.7"/>
		<path class="st3" d="M339.6,465.4c2.4-1.8,245.6-3.5,246.2-1.8c0.6,1.8,0,259.7,0,259.7s-3.5,24.1-26.5,24.1s-136,4.1-140.2,0
			c-4.1-4.1-32.1-5.3-32.1-32.1s0-181.1,0-181.1s-32.1-50.1-46.2-58.3C340.8,470.1,337.8,465.4,339.6,465.4z"/>
		<path class="st5" d="M526.3,612.6c-38.9,11.8-77.7-2.4-106.6-11.8c-11.1-3.6-22.6-2.6-32.7,0.1c0,45.3,0,99.6,0,114.5
			c0,26.8,28,28,32.1,32.1c4.1,4.1,117.2,0,140.2,0c23,0,26.5-24.1,26.5-24.1s0.2-66.7,0.2-132.5
			C563.2,599.8,540.6,608.3,526.3,612.6z"/>
		<rect x="382.6" y="525.5" class="st1" width="63.6" height="4.7"/>
		<rect x="385.1" y="578.9" class="st1" width="61" height="4.7"/>
		<rect x="385.1" y="627.8" class="st1" width="61" height="4.7"/>
		<rect x="385.1" y="679.2" class="st1" width="61" height="4.7"/>
		<path class="st0" d="M448.6,723.8l-8.1-4.4c67.7-123.9,169.6-311.5,172.7-320.5l3,1l6,0.6C621.6,406.4,513.2,605.6,448.6,723.8z"
			/>
		<path class="st7" d="M305.4,377.4c15,0,19.1,0,19.1,0"/>
		<line class="st7" x1="333.7" y1="377.1" x2="342.8" y2="377.1"/>
		<polyline class="st7" points="351.7,377.1 387.6,377.1 387.6,362.4 		"/>
		<line class="st7" x1="388.5" y1="352.6" x2="388.5" y2="344.1"/>
		<line class="st7" x1="389.9" y1="292.9" x2="389.9" y2="334.7"/>
		<path class="st7" d="M306.6,293.5c13.3,15.6,13.3,15.6,13.3,15.6"/>
		<line class="st7" x1="329.3" y1="317.3" x2="335.6" y2="323.6"/>
		<line class="st7" x1="338.4" y1="328.5" x2="362" y2="352.1"/>
		<line class="st7" x1="367.6" y1="357.9" x2="372.6" y2="363"/>
		<line class="st7" x1="381.4" y1="369.7" x2="401.9" y2="390.2"/>
		<line class="st7" x1="405.3" y1="393.6" x2="413.8" y2="402.1"/>
		<line class="st7" x1="419.1" y1="409.5" x2="441.5" y2="431.9"/>
		<path class="st8" d="M580.4,182.6c0,0-10.6-17.3-17.7-15.7s-9.4,17.1-19,23.4c-9.6,6.3-34,9-36.7,13.7
			c-2.7,4.7,11.2,19.2,15.9,21.8C527.6,228.3,580.4,182.6,580.4,182.6z"/>
		<path class="st8" d="M651.7,157.4c-10.6-6.5-84.8,25.9-115.4,45.9s-40,25.9-39.5,44.2s31.8,26.5,37.1,44.8
			c5.3,18.3,3.5,84.8,15.9,84.8c12.4,0,197.3,0,197.3,0s14.7-7.7,14.7-26.5s1.2-78.3,1.2-78.3L651.7,157.4z"/>
		<circle class="st9" cx="676.4" cy="246.4" r="102.5"/>
		<circle class="st8" cx="676.4" cy="246.4" r="73"/>
		<g>
			<path class="st7" d="M668.8,220.4h-32.4v22.4c0,0,30,1.8,30,19.4c0,17.7-34.2,11.2-34.2,11.2"/>
			<path class="st7" d="M679.4,273v-29.6c0,0,13.5-6.7,13.5,3.9s0,25.7,0,25.7"/>
			<path class="st10" d="M708.2,273c0,0,0.2-18.5,0-25.7c-0.1-3.8-12-10-15.3,0"/>
		</g>
	</g>
</g>
</svg>
