<?xml version="1.0" encoding="utf-8"?>
<!-- Generator: Adobe Illustrator 23.0.3, SVG Export Plug-In . SVG Version: 6.00 Build 0)  -->
<svg version="1.1" id="_x31_" xmlns="http://www.w3.org/2000/svg" xmlns:xlink="http://www.w3.org/1999/xlink" x="0px" y="0px"
	 viewBox="0 0 800 800" style="enable-background:new 0 0 800 800;" xml:space="preserve">
<style type="text/css">
	.st0{fill:#B7CDD6;}
	.st1{fill:#6F55AD;}
	.st2{fill:#81F7B0;}
	.st3{fill:#EA6890;}
	.st4{fill:#EDEA77;}
	.st5{fill:#FFFC99;}
	.st6{fill:#83F29E;}
	.st7{fill:#F26DA0;}
	.st8{opacity:0.5;}
	.st9{fill:#9FFFD8;}
	.st10{fill:#DFFF7D;}
	.st11{fill:#91E0E2;}
	.st12{filter:url(#Adobe_OpacityMaskFilter);}
	.st13{filter:url(#Adobe_OpacityMaskFilter_1_);}
	.st14{mask:url(#SVGID_1_);fill:url(#SVGID_2_);}
	.st15{opacity:0.7;fill:url(#SVGID_3_);}
	.st16{fill:#B2476E;}
	.st17{fill:#8FEFDF;}
	.st18{fill:#FFC050;}
	.st19{fill:#FF6470;}
	.st20{filter:url(#Adobe_OpacityMaskFilter_2_);}
	.st21{filter:url(#Adobe_OpacityMaskFilter_3_);}
	.st22{mask:url(#SVGID_4_);fill:url(#SVGID_5_);}
	.st23{opacity:0.7;fill:url(#SVGID_6_);}
</style>
<ellipse class="st0" cx="400" cy="400" rx="399.9" ry="400"/>
<g>
	<g>
		<path class="st1" d="M384.9,619.4V244.6c0,0,9-142.7-41.5-160.1c-25.6-8.8-53.3,12.9-55.7,35.8c-25-6.3-66.2,27.7-73.2,66.6
			C161,190.2,122,253.6,137,309.4c-38.3,20.4-58.9,69.9-47.8,112.8c-32.6,35.1-26.6,114.2,13.5,134.7
			c-19.7,42,31.5,120.4,88.6,106.8C238.3,781.9,388.2,676.2,384.9,619.4z"/>
		<g>
			<polygon class="st2" points="352.8,240 352.8,225.1 338,225.1 			"/>
			<polygon class="st2" points="335.7,227.5 335.7,242.3 350.5,242.3 			"/>
		</g>
		<g>
			<path class="st2" d="M105.4,457.2c-5.2-3.3-11.8-3.3-17,0l3.4,3.5c3.2-1.6,6.9-1.6,10.1,0L105.4,457.2z"/>
			<g>
				<path class="st2" d="M86.8,475.8c-1.6-3.2-1.6-6.9,0-10.1l-3.4-3.4c-3.3,5.2-3.3,11.8,0,17L86.8,475.8z"/>
				<path class="st2" d="M101.9,480.8c-3.2,1.6-6.9,1.6-10.1,0l-3.4,3.4c5.2,3.3,11.8,3.3,17,0L101.9,480.8z"/>
			</g>
			<path class="st2" d="M92,465.9c-2.7,2.7-2.7,7,0,9.7c2.7,2.7,7,2.7,9.7,0c2.7-2.7,2.7-7,0-9.7C99.1,463.2,94.7,463.2,92,465.9z"
				/>
		</g>
		<g>
			
				<rect x="142.9" y="430.9" transform="matrix(0.7071 -0.7071 0.7071 0.7071 -260.4715 235.1968)" class="st3" width="21.6" height="2.2"/>
		</g>
		<g>
			
				<rect x="151.6" y="439.6" transform="matrix(0.7071 -0.7071 0.7071 0.7071 -264.0745 243.8959)" class="st3" width="21.6" height="2.2"/>
		</g>
		<g>
			
				<rect x="160" y="448" transform="matrix(0.7071 -0.7071 0.7071 0.7071 -267.5593 252.3092)" class="st3" width="21.6" height="2.2"/>
		</g>
		<g>
			<polygon class="st4" points="261.5,677.7 188.9,605 190.4,603.5 261.5,674.6 335.8,600.4 128.2,392.9 339.5,181.6 339.5,111.5 
				341.6,111.5 341.6,182.5 131.3,392.9 338.8,600.4 			"/>
		</g>
		<g>
			<polygon class="st5" points="127.5,406.6 140.5,393.6 127.5,380.6 			"/>
			<polygon class="st5" points="123.3,380.6 110.3,393.6 123.3,406.6 			"/>
		</g>
		<g>
			<polygon class="st4" points="282.3,545.9 280.7,544.4 348.9,476.3 348.9,272.5 351,272.5 351,477.2 			"/>
		</g>
		<g>
			<polygon class="st3" points="314.9,513.4 312.7,513.4 312.7,355.8 294.3,337.2 294.3,277 280.7,263.4 282.3,261.9 296.5,276.2 
				296.5,336.3 314.9,354.9 			"/>
		</g>
		<g>
			<polygon class="st6" points="349.2,477.5 331.5,459.8 331.5,320.4 333.6,320.4 333.6,458.9 350.7,475.9 			"/>
		</g>
		<path class="st2" d="M345.6,475.8c0,2.5,2,4.6,4.6,4.6c2.5,0,4.6-2,4.6-4.6c0-2.5-2-4.6-4.6-4.6
			C347.6,471.2,345.6,473.2,345.6,475.8z"/>
		<path class="st7" d="M317.1,567.8c0,2.5,2,4.6,4.6,4.6c2.5,0,4.6-2,4.6-4.6c0-2.5-2-4.6-4.6-4.6
			C319.1,563.2,317.1,565.3,317.1,567.8z"/>
		<path class="st7" d="M304.9,681.5c0,2.5,2,4.6,4.6,4.6c2.5,0,4.6-2,4.6-4.6c0-2.5-2-4.6-4.6-4.6
			C306.9,676.9,304.9,679,304.9,681.5z"/>
		<path class="st2" d="M328.3,321.6c0,2.5,2,4.6,4.6,4.6c2.5,0,4.6-2,4.6-4.6c0-2.5-2-4.6-4.6-4.6C330.3,317,328.3,319,328.3,321.6z
			"/>
		<path class="st5" d="M310.8,329.5c0,2.5,2,4.6,4.6,4.6c2.5,0,4.6-2,4.6-4.6c0-2.5-2-4.6-4.6-4.6C312.8,325,310.8,327,310.8,329.5z
			"/>
		<path class="st7" d="M219.5,398.8c0,2.5,2,4.6,4.6,4.6c2.5,0,4.6-2,4.6-4.6c0-2.5-2-4.6-4.6-4.6
			C221.6,394.3,219.5,396.3,219.5,398.8z"/>
		<path class="st7" d="M238.3,346.1c0,2.5,2,4.6,4.6,4.6c2.5,0,4.6-2,4.6-4.6c0-2.5-2-4.6-4.6-4.6
			C240.4,341.5,238.3,343.6,238.3,346.1z"/>
		<g>
			<path class="st7" d="M133,373.1c0,1.5,1.2,2.7,2.7,2.7c1.5,0,2.7-1.2,2.7-2.7c0-1.5-1.2-2.7-2.7-2.7
				C134.2,370.4,133,371.6,133,373.1z"/>
			<path class="st5" d="M139.3,366.7c0,1.5,1.2,2.7,2.7,2.7c1.5,0,2.7-1.2,2.7-2.7c0-1.5-1.2-2.7-2.7-2.7
				C140.5,364,139.3,365.2,139.3,366.7z"/>
			<path class="st7" d="M145.7,360.3c0,1.5,1.2,2.7,2.7,2.7c1.5,0,2.7-1.2,2.7-2.7c0-1.5-1.2-2.7-2.7-2.7
				C146.9,357.6,145.7,358.8,145.7,360.3z"/>
			<path class="st2" d="M152.1,354c0,1.5,1.2,2.7,2.7,2.7c1.5,0,2.7-1.2,2.7-2.7c0-1.5-1.2-2.7-2.7-2.7S152.1,352.5,152.1,354z"/>
			<path class="st5" d="M158.4,347.6c0,1.5,1.2,2.7,2.7,2.7c1.5,0,2.7-1.2,2.7-2.7c0-1.5-1.2-2.7-2.7-2.7
				C159.6,344.9,158.4,346.1,158.4,347.6z"/>
			<path class="st7" d="M164.8,341.2c0,1.5,1.2,2.7,2.7,2.7c1.5,0,2.7-1.2,2.7-2.7c0-1.5-1.2-2.7-2.7-2.7
				C166,338.5,164.8,339.7,164.8,341.2z"/>
			<path class="st7" d="M171.2,334.9c0,1.5,1.2,2.7,2.7,2.7c1.5,0,2.7-1.2,2.7-2.7c0-1.5-1.2-2.7-2.7-2.7
				C172.4,332.2,171.2,333.4,171.2,334.9z"/>
		</g>
		<g>
			<path class="st7" d="M126.2,544.3c-1.5,0-2.7,1.2-2.7,2.7c0,1.5,1.2,2.7,2.7,2.7c1.5,0,2.7-1.2,2.7-2.7
				C128.9,545.5,127.7,544.3,126.2,544.3z"/>
			<path class="st5" d="M132.6,550.6c-1.5,0-2.7,1.2-2.7,2.7c0,1.5,1.2,2.7,2.7,2.7c1.5,0,2.7-1.2,2.7-2.7
				C135.3,551.8,134.1,550.6,132.6,550.6z"/>
			<path class="st7" d="M138.9,557c-1.5,0-2.7,1.2-2.7,2.7c0,1.5,1.2,2.7,2.7,2.7c1.5,0,2.7-1.2,2.7-2.7
				C141.7,558.2,140.4,557,138.9,557z"/>
			<path class="st2" d="M145.3,563.4c-1.5,0-2.7,1.2-2.7,2.7c0,1.5,1.2,2.7,2.7,2.7c1.5,0,2.7-1.2,2.7-2.7
				C148,564.6,146.8,563.4,145.3,563.4z"/>
			<path class="st5" d="M151.7,569.7c-1.5,0-2.7,1.2-2.7,2.7c0,1.5,1.2,2.7,2.7,2.7c1.5,0,2.7-1.2,2.7-2.7
				C154.4,570.9,153.2,569.7,151.7,569.7z"/>
			<path class="st7" d="M158.1,576.1c-1.5,0-2.7,1.2-2.7,2.7c0,1.5,1.2,2.7,2.7,2.7c1.5,0,2.7-1.2,2.7-2.7
				C160.8,577.3,159.6,576.1,158.1,576.1z"/>
			<path class="st7" d="M164.4,582.5c-1.5,0-2.7,1.2-2.7,2.7c0,1.5,1.2,2.7,2.7,2.7c1.5,0,2.7-1.2,2.7-2.7
				C167.1,583.7,165.9,582.5,164.4,582.5z"/>
		</g>
		<path class="st2" d="M184.7,332.4c0,2.5,2,4.6,4.6,4.6c2.5,0,4.6-2,4.6-4.6c0-2.5-2-4.6-4.6-4.6
			C186.8,327.8,184.7,329.9,184.7,332.4z"/>
		<path class="st7" d="M277.9,263.5c0,2.5,2,4.6,4.6,4.6c2.5,0,4.6-2,4.6-4.6c0-2.5-2-4.6-4.6-4.6
			C279.9,258.9,277.9,261,277.9,263.5z"/>
		<g>
			<polygon class="st3" points="347.7,269 322.7,269 294.8,241.1 352.9,183.1 352.9,139.6 355,139.6 355,184 297.9,241.1 
				323.6,266.9 347.7,266.9 			"/>
		</g>
		<g>
			<polygon class="st4" points="351.7,254.5 330.4,254.5 314.5,238.6 350.2,202.9 351.7,204.4 317.5,238.6 331.3,252.3 351.7,252.3 
							"/>
		</g>
		<path class="st7" d="M349.7,141.6c0,2.5,2,4.6,4.6,4.6c2.5,0,4.6-2,4.6-4.6c0-2.5-2-4.6-4.6-4.6
			C351.7,137,349.7,139.1,349.7,141.6z"/>
		<g>
			<polygon class="st4" points="316,329.7 313.9,329.7 313.9,278.7 279.8,244.6 281.3,243 316,277.8 			"/>
		</g>
		<g>
			<polygon class="st5" points="334.7,303.8 334.7,306.4 336.5,308.2 336.5,302 330.3,302 332.1,303.8 			"/>
			<polygon class="st5" points="333.8,307.4 331.1,307.4 331.1,304.7 329.3,303 329.3,309.2 335.5,309.2 			"/>
		</g>
		<g>
			<polygon class="st5" points="347.9,510.9 343.9,510.9 341.3,513.5 350.5,513.5 350.5,504.3 347.9,506.9 			"/>
			<polygon class="st5" points="342.5,509.4 342.5,505.5 346.4,505.5 349.1,502.8 339.8,502.8 339.8,512.1 			"/>
		</g>
		<g>
			<polygon class="st5" points="332.3,637.4 330.5,635.5 328,635.5 332.3,639.8 336.7,635.5 334.2,635.5 			"/>
			<polygon class="st5" points="330.5,634.1 332.3,632.2 334.2,634.1 336.7,634.1 332.3,629.7 328,634.1 			"/>
		</g>
		<g>
			<polygon class="st5" points="334.7,292.5 334.7,295.2 336.5,297 336.5,290.8 330.3,290.8 332.1,292.5 			"/>
			<polygon class="st5" points="333.8,296.2 331.1,296.2 331.1,293.5 329.3,291.8 329.3,297.9 335.5,298 			"/>
		</g>
		<g>
			<polygon class="st7" points="334.7,281.3 334.7,284 336.5,285.8 336.5,279.6 330.3,279.6 332.1,281.3 			"/>
			<polygon class="st7" points="333.8,285 331.1,285 331.1,282.3 329.3,280.5 329.3,286.7 335.5,286.7 			"/>
		</g>
		<g>
			<rect x="315.3" y="304.5" class="st4" width="14.8" height="2.2"/>
		</g>
		<g>
			<rect x="331.9" y="267.2" class="st3" width="2.2" height="12.5"/>
		</g>
		<g>
			<rect x="335.5" y="293.3" class="st4" width="14.4" height="2.2"/>
		</g>
		<g>
			<polygon class="st4" points="191,592.1 189.5,590.6 291.3,488.8 291.3,371.1 239.6,319.4 165.5,393.4 189.6,417.5 188,419 
				162.5,393.4 239.6,316.3 293.4,370.2 293.4,489.7 			"/>
		</g>
		<g>
			<polygon class="st6" points="315.2,607.2 180.1,472.1 92.1,472.1 92.1,469.9 181,469.9 316.8,605.7 			"/>
		</g>
		<g>
			<polygon class="st6" points="267.9,601.6 190.4,523.3 190.6,484.6 132.9,484.3 132.6,529.5 172.7,570 181.6,561.2 154.2,533.6 
				154.4,504.6 156.5,504.6 156.4,532.7 184.6,561.2 172.7,573.1 130.5,530.4 130.7,482.1 192.8,482.4 192.6,522.4 269.4,600.1 			
				"/>
		</g>
		<g>
			<polygon class="st4" points="325,587 323.5,585.5 344.6,564.4 344.6,510.9 346.8,510.9 346.8,565.3 			"/>
		</g>
		<g>
			<polygon class="st3" points="321.2,568.7 306.1,553.6 306.1,519.5 308.2,519.5 308.2,552.7 322.8,567.2 			"/>
		</g>
		<g>
			<rect x="326" y="498.8" class="st4" width="2.2" height="50.3"/>
		</g>
		<g>
			<polygon class="st3" points="311.1,682 309.5,680.4 352.3,637.7 352.3,603.9 354.5,603.9 354.5,638.6 			"/>
		</g>
		<g>
			<polygon class="st4" points="278.7,660.4 278.7,658.2 308.5,658.1 330.6,635.9 332.1,637.4 309.4,660.3 			"/>
		</g>
		<g>
			<polygon class="st3" points="247.9,510 246.3,508.5 273.2,481.6 273.2,377 242.2,346 243.8,344.5 275.4,376.1 275.4,482.5 			"/>
		</g>
		<g>
			<polygon class="st3" points="260.3,495.9 258.2,495.9 258.2,394.1 243.9,379.7 224.1,399.5 222.6,398 243.9,376.7 260.3,393.2 
							"/>
		</g>
		<g>
			
				<rect x="169.1" y="383.3" transform="matrix(0.7071 -0.7071 0.7071 0.7071 -212.3307 256.1779)" class="st4" width="68" height="2.2"/>
		</g>
		<g>
			<polygon class="st4" points="230.7,475.4 216.4,460.6 217.9,459.1 230.7,472.3 242.2,460.4 242.2,409.6 195.8,457.5 194.2,456 
				244.4,404.3 244.4,461.3 			"/>
		</g>
		<g>
			<polygon class="st6" points="281.4,337.9 233,289.4 234.5,287.9 279.3,332.6 279.3,286.8 273,280.5 266.9,286.7 265.3,285.1 
				273,277.5 281.4,285.9 			"/>
		</g>
		<g class="st8">
			<polygon class="st9" points="192.3,310.2 196.5,306 191,300.6 186.9,304.8 			"/>
			<polygon class="st9" points="199.7,302.8 203.8,298.6 198.4,293.2 194.2,297.4 			"/>
			<polygon class="st9" points="207,295.4 211.2,291.3 205.8,285.9 201.6,290 			"/>
			<polygon class="st9" points="214.4,288.1 218.6,283.9 213.1,278.5 209,282.7 			"/>
			
				<rect x="218.2" y="272.1" transform="matrix(0.7073 -0.7069 0.7069 0.7073 -130.3231 237.0935)" class="st9" width="5.9" height="7.7"/>
			<polygon class="st9" points="229.1,273.3 233.3,269.2 227.9,263.8 223.7,267.9 			"/>
		</g>
		<g class="st8">
			<polygon class="st9" points="175.8,293.6 179.9,289.5 174.5,284.1 170.3,288.2 			"/>
			<polygon class="st9" points="183.1,286.3 187.3,282.1 181.9,276.7 177.7,280.9 			"/>
			<polygon class="st9" points="190.5,278.9 194.7,274.7 189.2,269.3 185.1,273.5 			"/>
			<polygon class="st9" points="197.9,271.5 202,267.4 196.6,262 192.4,266.1 			"/>
			
				<rect x="201.7" y="255.5" transform="matrix(0.7072 -0.707 0.707 0.7072 -123.4741 220.5797)" class="st9" width="5.9" height="7.7"/>
			
				<rect x="209" y="248.2" transform="matrix(0.707 -0.7072 0.7072 0.707 -116.1176 223.7336)" class="st9" width="5.9" height="7.7"/>
		</g>
		
			<rect x="258.2" y="215.5" transform="matrix(0.7071 -0.7071 0.7071 0.7071 -75.9594 255.4978)" class="st2" width="24.4" height="7.9"/>
		
			<rect x="247.3" y="207.7" transform="matrix(0.7071 -0.7071 0.7071 0.7071 -76.2717 239.7693)" class="st7" width="7.9" height="8.5"/>
		
			<rect x="290.5" y="164.5" transform="matrix(0.707 -0.7072 0.7072 0.707 -33.104 257.6627)" class="st5" width="7.9" height="8.5"/>
		
			<rect x="228.5" y="226.5" transform="matrix(0.707 -0.7072 0.7072 0.707 -95.0961 231.9883)" class="st5" width="7.9" height="8.5"/>
		
			<rect x="252.9" y="282.3" transform="matrix(0.7071 -0.7071 0.7071 0.7071 -129.07 269.3418)" class="st2" width="15.3" height="16.4"/>
		
			<rect x="186" y="412.7" transform="matrix(0.7071 -0.7071 0.7071 0.7071 -240.9023 260.2203)" class="st10" width="15.3" height="16.4"/>
		
			<rect x="281.4" y="192.3" transform="matrix(0.7071 -0.7071 0.7071 0.7071 -52.7518 265.1107)" class="st7" width="24.4" height="7.9"/>
		<g>
			<rect x="152.1" y="449.9" class="st6" width="2.2" height="21.6"/>
		</g>
		<g>
			<polygon class="st4" points="136.8,451.2 120.8,435.1 164.4,391.5 165.9,393.1 123.8,435.1 138.3,449.6 			"/>
		</g>
		<rect x="310.6" y="422.2" class="st7" width="6.8" height="14.3"/>
		
			<rect x="302.7" y="512.6" transform="matrix(0.7072 -0.707 0.707 0.7072 -274.1482 370.168)" class="st7" width="14.3" height="6.8"/>
		
			<rect x="221.6" y="549.6" transform="matrix(0.707 -0.7072 0.7072 0.707 -327.8016 322.2563)" class="st5" width="6.8" height="14.3"/>
		<g>
			<polygon class="st4" points="213.6,568.5 173.9,528.9 173.9,501.2 176.1,501.2 176.1,528 215.1,567 			"/>
		</g>
		<rect x="144.8" y="492.5" class="st2" width="36.5" height="13.3"/>
		<g>
			
				<rect x="256.5" y="609.6" transform="matrix(0.7071 -0.7071 0.7071 0.7071 -348.9776 378.8943)" class="st6" width="52.8" height="2.2"/>
		</g>
		<g>
			
				<rect x="235.5" y="589.8" transform="matrix(0.7071 -0.7071 0.7071 0.7071 -345.9745 346.503)" class="st11" width="19.6" height="2.2"/>
		</g>
		<g>
			<g>
				<path class="st5" d="M180.2,587.5c-4.3,1-7.7,4.3-8.6,8.6h3.5c0.8-2.4,2.7-4.3,5.1-5.1V587.5z"/>
				<path class="st5" d="M185.3,587.5v3.5c2.4,0.8,4.3,2.7,5.1,5.1h3.5C193,591.8,189.6,588.5,185.3,587.5z"/>
			</g>
			<g>
				<path class="st5" d="M180.2,606.4c-2.4-0.8-4.3-2.7-5.1-5.1h-3.5c1,4.3,4.4,7.7,8.6,8.6V606.4z"/>
				<path class="st5" d="M190.4,601.2c-0.8,2.4-2.7,4.3-5.1,5.1v3.5c4.3-1,7.7-4.3,8.6-8.6H190.4z"/>
			</g>
		</g>
		<g>
			<g>
				<g>
					<path class="st5" d="M270,662.9c-5.2-3.3-11.8-3.3-17,0l3.4,3.5c3.2-1.6,6.9-1.6,10.1,0L270,662.9z"/>
					<path class="st5" d="M275.1,667.9l-3.4,3.4c1.6,3.2,1.6,6.9,0,10.1l3.4,3.5C278.3,679.8,278.3,673.1,275.1,667.9z"/>
				</g>
				<g>
					<path class="st5" d="M251.4,681.5c-1.6-3.2-1.6-6.9,0-10.1l-3.4-3.4c-3.3,5.2-3.3,11.8,0,17L251.4,681.5z"/>
					<path class="st5" d="M266.6,686.5c-3.2,1.6-6.9,1.6-10.1,0L253,690c5.2,3.3,11.8,3.3,17,0L266.6,686.5z"/>
				</g>
			</g>
			<path class="st5" d="M256.7,671.6c-2.7,2.7-2.7,7,0,9.7c2.7,2.7,7,2.7,9.7,0c2.7-2.7,2.7-7,0-9.7
				C263.7,668.9,259.4,668.9,256.7,671.6z"/>
		</g>
		<g>
			<g>
				<g>
					<path class="st5" d="M354.1,108.3c-1.2-5.3-5.4-9.6-10.8-10.8v4.4c3,1,5.4,3.4,6.4,6.4H354.1z"/>
					<path class="st5" d="M354.1,114.7h-4.4c-1,3-3.4,5.4-6.4,6.4v4.4C348.7,124.2,352.9,120,354.1,114.7z"/>
				</g>
				<g>
					<path class="st5" d="M330.5,108.3c1-3,3.4-5.4,6.4-6.4v-4.4c-5.3,1.2-9.6,5.4-10.8,10.8H330.5z"/>
					<path class="st5" d="M337,121.1c-3-1-5.4-3.4-6.4-6.4h-4.4c1.2,5.3,5.4,9.6,10.8,10.8L337,121.1z"/>
				</g>
			</g>
			<path class="st5" d="M340.2,105.3c-3.4,0-6.2,2.8-6.2,6.2c0,3.4,2.8,6.2,6.2,6.2c3.4,0,6.2-2.8,6.2-6.2
				C346.3,108.1,343.6,105.3,340.2,105.3z"/>
		</g>
		<g>
			<g>
				<path class="st10" d="M212.8,449.3c-2.5,0.6-4.5,2.6-5.1,5.1h2.1c0.5-1.4,1.6-2.6,3-3.1V449.3z"/>
				<path class="st10" d="M215.9,449.3v2.1c1.4,0.5,2.6,1.6,3,3.1h2.1C220.4,451.9,218.4,449.9,215.9,449.3z"/>
			</g>
			<g>
				<path class="st10" d="M212.8,460.6c-1.4-0.5-2.6-1.6-3-3.1h-2.1c0.6,2.5,2.6,4.5,5.1,5.1V460.6z"/>
				<path class="st10" d="M218.9,457.5c-0.5,1.4-1.6,2.6-3,3.1v2.1c2.5-0.6,4.5-2.6,5.1-5.1H218.9z"/>
			</g>
		</g>
		<g>
			<polygon class="st6" points="188.9,333.5 168,312.6 181.5,299.1 183,300.6 171,312.6 190.4,332 			"/>
		</g>
		<g class="st8">
			
				<rect x="260.9" y="618.1" transform="matrix(0.7071 -0.7072 0.7072 0.7071 -361.1194 368.9538)" class="st9" width="7.7" height="4.5"/>
			
				<rect x="255.3" y="612.4" transform="matrix(0.707 -0.7072 0.7072 0.707 -358.7994 363.3517)" class="st9" width="7.7" height="4.5"/>
			
				<rect x="249.6" y="606.8" transform="matrix(0.7071 -0.7071 0.7071 0.7071 -356.4148 357.5927)" class="st9" width="7.7" height="4.5"/>
			
				<rect x="243.9" y="601.1" transform="matrix(0.7072 -0.7071 0.7071 0.7072 -354.0479 351.8766)" class="st9" width="7.7" height="4.5"/>
			
				<rect x="238.3" y="595.4" transform="matrix(0.7072 -0.707 0.707 0.7072 -351.6934 346.1921)" class="st9" width="7.7" height="4.5"/>
			
				<rect x="232.6" y="589.8" transform="matrix(0.7071 -0.7071 0.7071 0.7071 -349.3732 340.5875)" class="st9" width="7.7" height="4.5"/>
		</g>
		<g class="st8">
			
				<rect x="246.3" y="632.7" transform="matrix(0.707 -0.7072 0.7072 0.707 -375.7666 362.9008)" class="st9" width="7.7" height="4.5"/>
			
				<rect x="240.6" y="627.1" transform="matrix(0.707 -0.7072 0.7072 0.707 -373.4435 357.2875)" class="st9" width="7.7" height="4.5"/>
			
				<rect x="235" y="621.4" transform="matrix(0.7071 -0.7071 0.7071 0.7071 -371.0473 351.5081)" class="st9" width="7.7" height="4.5"/>
			
				<rect x="229.3" y="615.7" transform="matrix(0.7072 -0.7071 0.7071 0.7072 -368.6871 345.8123)" class="st9" width="7.7" height="4.5"/>
			
				<rect x="223.6" y="610.1" transform="matrix(0.7072 -0.707 0.707 0.7072 -366.3372 340.1381)" class="st9" width="7.7" height="4.5"/>
			
				<rect x="218" y="604.4" transform="matrix(0.7071 -0.7071 0.7071 0.7071 -364.0138 334.5232)" class="st9" width="7.7" height="4.5"/>
		</g>
		
			<rect x="231.8" y="578.4" transform="matrix(0.7071 -0.7071 0.7071 0.7071 -362.1187 351.0602)" class="st2" width="21.8" height="68.4"/>
		
			<rect x="168.6" y="266.9" transform="matrix(0.7071 -0.7071 0.7071 0.7071 -137.225 224.3648)" class="st2" width="67.2" height="21.8"/>
		<g>
			<polygon class="st7" points="345.7,613.1 358.7,600.1 345.7,587.1 			"/>
			<polygon class="st7" points="341.6,587.1 328.6,600.1 341.6,613.1 			"/>
		</g>
		<g>
			<g>
				<polygon class="st1" points="211.3,278.1 211.3,268.8 202,268.8 				"/>
				<polygon class="st1" points="193.8,277 193.8,286.3 203.1,286.3 				"/>
			</g>
			
				<rect x="195.7" y="275.2" transform="matrix(0.7071 -0.7071 0.7071 0.7071 -136.8628 224.527)" class="st1" width="13.7" height="4.5"/>
		</g>
		<g>
			<g>
				<polygon class="st1" points="241.9,620.5 251.2,620.5 251.2,611.2 				"/>
				<polygon class="st1" points="243,603 233.7,603 233.7,612.3 				"/>
			</g>
			
				<rect x="240.3" y="604.9" transform="matrix(0.7069 -0.7073 0.7073 0.7069 -361.6777 350.8931)" class="st1" width="4.5" height="13.7"/>
		</g>
		<g>
			<g>
				<polygon class="st5" points="159.7,494.6 155,499.3 159.7,503.9 				"/>
				<polygon class="st5" points="167.8,503.9 172.5,499.3 167.8,494.6 				"/>
			</g>
			<rect x="158.9" y="497.7" class="st5" width="9.7" height="3.2"/>
		</g>
		<polygon class="st7" points="170.9,459.5 142.5,431.1 114.1,459.5 		"/>
		<path class="st7" d="M242.3,509.4c0,2.5,2,4.6,4.6,4.6c2.5,0,4.6-2,4.6-4.6c0-2.5-2-4.6-4.6-4.6
			C244.4,504.8,242.3,506.9,242.3,509.4z"/>
		<path class="st5" d="M221.5,360.9c0,2.5,2,4.6,4.6,4.6c2.5,0,4.6-2,4.6-4.6c0-2.5-2-4.6-4.6-4.6
			C223.6,356.4,221.5,358.4,221.5,360.9z"/>
		<path class="st5" d="M322.4,548.8c0,2.5,2,4.6,4.6,4.6c2.5,0,4.6-2,4.6-4.6c0-2.5-2-4.6-4.6-4.6
			C324.4,544.2,322.4,546.2,322.4,548.8z"/>
		<path class="st5" d="M174.6,650.3c0,2.5,2,4.6,4.6,4.6c2.5,0,4.6-2,4.6-4.6c0-2.5-2-4.6-4.6-4.6
			C176.7,645.7,174.6,647.8,174.6,650.3z"/>
		<path class="st5" d="M122.7,616.6c0,2.5,2,4.6,4.6,4.6c2.5,0,4.6-2,4.6-4.6c0-2.5-2-4.6-4.6-4.6
			C124.8,612.1,122.7,614.1,122.7,616.6z"/>
		<g>
			<polygon class="st5" points="344.9,276.3 356.9,276.3 356.9,264.2 			"/>
			<polygon class="st5" points="355,262.3 343,262.3 343,274.4 			"/>
		</g>
		<path class="st5" d="M346.8,253.7c0,2.5,2,4.6,4.6,4.6c2.5,0,4.6-2,4.6-4.6c0-2.5-2-4.6-4.6-4.6
			C348.9,249.1,346.8,251.2,346.8,253.7z"/>
		<path class="st2" d="M346.8,203.5c0,2.5,2,4.6,4.6,4.6c2.5,0,4.6-2,4.6-4.6c0-2.5-2-4.6-4.6-4.6
			C348.9,198.9,346.8,201,346.8,203.5z"/>
		<path class="st2" d="M179.1,226.3c0,2.5,2,4.6,4.6,4.6c2.5,0,4.6-2,4.6-4.6c0-2.5-2-4.6-4.6-4.6
			C181.2,221.7,179.1,223.8,179.1,226.3z"/>
		<g>
			<polygon class="st4" points="163,618.4 128.1,618.4 128.1,616.2 162.1,616.2 174.1,604.3 175.6,605.8 			"/>
		</g>
		<g>
			<polygon class="st4" points="179.9,650.1 177.7,650.1 177.7,629.7 196.9,610.6 198.4,612.1 179.9,630.6 			"/>
		</g>
		<g>
			<polygon class="st6" points="133.7,584 116.4,566.7 116.4,518.2 130.4,504.2 132,505.7 118.6,519.1 118.6,565.8 135.2,582.5 			
				"/>
		</g>
		<g>
			<polygon class="st6" points="162.6,277.2 147.1,261.7 182.9,225.8 184.4,227.3 150.1,261.7 162.6,274.1 209.3,227.3 232.8,250.8 
				224.1,259.6 222.6,258 229.8,250.8 209.3,230.4 			"/>
		</g>
		<g>
			
				<rect x="279" y="218.8" transform="matrix(0.7071 -0.7071 0.7071 0.7071 -79.8014 265.0748)" class="st6" width="2.2" height="20.2"/>
		</g>
		<g>
			<polygon class="st3" points="252,212.7 250.5,211.2 279.7,181.9 295.4,197.6 293.9,199.1 279.7,185 			"/>
		</g>
		<g>
			<polygon class="st3" points="302.5,189.1 301,187.6 325.5,163 352.8,163 352.8,165.2 326.4,165.2 			"/>
		</g>
		<g>
			<polygon class="st4" points="232.9,228.5 230.8,228.5 230.8,197.3 261.1,167 295.6,167 325.6,197 324.1,198.5 294.7,169.2 
				262,169.2 232.9,198.2 			"/>
		</g>
		<path class="st2" d="M309.9,605.3c0,2.5,2,4.6,4.6,4.6c2.5,0,4.6-2,4.6-4.6c0-2.5-2-4.6-4.6-4.6
			C311.9,600.7,309.9,602.8,309.9,605.3z"/>
		<path class="st2" d="M130.8,582.5c0,2.5,2,4.6,4.6,4.6c2.5,0,4.6-2,4.6-4.6c0-2.5-2-4.6-4.6-4.6
			C132.8,577.9,130.8,579.9,130.8,582.5z"/>
		<path class="st2" d="M263.8,600.9c0,2.5,2,4.6,4.6,4.6c2.5,0,4.6-2,4.6-4.6c0-2.5-2-4.6-4.6-4.6
			C265.9,596.3,263.8,598.3,263.8,600.9z"/>
		<defs>
			<filter id="Adobe_OpacityMaskFilter" filterUnits="userSpaceOnUse" x="68.2" y="82.5" width="317.3" height="634.9">
				<feFlood  style="flood-color:white;flood-opacity:1" result="back"/>
				<feBlend  in="SourceGraphic" in2="back" mode="normal"/>
			</filter>
		</defs>
		<mask maskUnits="userSpaceOnUse" x="68.2" y="82.5" width="317.3" height="634.9" id="SVGID_1_">
			<g class="st12">
				<defs>
					<filter id="Adobe_OpacityMaskFilter_1_" filterUnits="userSpaceOnUse" x="68.2" y="82.5" width="317.3" height="634.9">
						<feFlood  style="flood-color:white;flood-opacity:1" result="back"/>
						<feBlend  in="SourceGraphic" in2="back" mode="normal"/>
					</filter>
				</defs>
				<mask maskUnits="userSpaceOnUse" x="68.2" y="82.5" width="317.3" height="634.9" id="SVGID_1_">
					<g class="st13">
					</g>
				</mask>
				<linearGradient id="SVGID_2_" gradientUnits="userSpaceOnUse" x1="226.832" y1="162.5898" x2="226.832" y2="641.424">
					<stop  offset="0" style="stop-color:#333333"/>
					<stop  offset="1" style="stop-color:#B3B3B3"/>
				</linearGradient>
				<path class="st14" d="M343.4,84.5c-25.6-8.8-53.3,12.9-55.7,35.8c-25-6.3-66.2,27.7-73.2,66.6C161,190.2,122,253.6,137,309.4
					c-38.3,20.4-58.9,69.9-47.8,112.8c-32.6,35.1-26.6,114.2,13.5,134.7c-19.7,42,31.5,120.4,88.6,106.8
					c47,118.2,196.9,12.5,193.6-44.3V244.6C384.9,244.6,393.9,102,343.4,84.5z"/>
			</g>
		</mask>
		<linearGradient id="SVGID_3_" gradientUnits="userSpaceOnUse" x1="226.832" y1="162.5898" x2="226.832" y2="641.424">
			<stop  offset="0" style="stop-color:#95F3FF"/>
			<stop  offset="1" style="stop-color:#510028"/>
		</linearGradient>
		<path class="st15" d="M343.4,84.5c-25.6-8.8-53.3,12.9-55.7,35.8c-25-6.3-66.2,27.7-73.2,66.6C161,190.2,122,253.6,137,309.4
			c-38.3,20.4-58.9,69.9-47.8,112.8c-32.6,35.1-26.6,114.2,13.5,134.7c-19.7,42,31.5,120.4,88.6,106.8
			c47,118.2,196.9,12.5,193.6-44.3V244.6C384.9,244.6,393.9,102,343.4,84.5z"/>
	</g>
	<g>
		<path class="st16" d="M416.2,620.3V245.5c0,0-9.7-142.6,40.3-160.4c25.3-9,53,12.6,55.5,35.4c24.8-6.4,65.9,27.3,73.1,66.2
			c53,3.1,92,66.2,77.5,122.1c38.2,20.2,58.8,69.6,48.1,112.6c32.5,34.9,27.1,114.1-12.7,134.8c19.8,41.9-30.6,120.6-87.3,107.2
			C564.6,781.9,413.2,677,416.2,620.3z"/>
		<path class="st17" d="M529.9,699.4c-35.7-1.2-67.6-28.6-66.4-63.1c1.5-41.6,47.8-39.2,48.8-68.3c1.4-40.6-43.6-55.5-42.5-86.7
			c1-27.4,16.3-42.8,32.8-51.7c-13.3,15.1-18.1,47.1-0.4,66.3c76,64.5,35.6,118.7,5,134.4c-23.9,12.2-22.3,47.2,20.6,48.7
			c41.9,1.5,56.5-32.7,56.5-49.2C594,649.6,591.1,701.6,529.9,699.4z"/>
		<path class="st18" d="M527.1,502.6c-23.5-17.3-28.1-34.9-24.8-51.4c6.3-31.5,40.7-54.3,72.3-48.1c17.5,3.5,32.8,20.3,29.8,35.8
			c-3.4,17.1-25.2,20.9-42.9,17.4c-15.8-3.1-28-14.8-25.5-27C538.2,418.2,493.9,468.9,527.1,502.6z"/>
		<path class="st19" d="M447.1,424c-15.5,64.8-20.4,96.2-3.7,143.5c2.6,6.7,12,14.5,19.3,14.5c14.7,0,23.8-14.5,23.8-28.6
			C486.6,524.7,437.5,501.1,447.1,424z"/>
		<path class="st5" d="M449.9,645.9c-10.6-13.5-10.3-26.1-9.5-36.8c1.1-14.5,7.8-20.3,15.1-19.7c1.8,0.1,8.2,4.4,7.7,11.2
			C462.4,612.7,436.2,626.1,449.9,645.9z"/>
		<path class="st19" d="M670,445.5c4.2-10.5,11.4-14.5,17.8-17.5c8.6-4.1,14.1-2.3,16.2,2.1c0.5,1,0.2,6.1-3.8,8.1
			C693,441.6,676.8,431.2,670,445.5z"/>
		<path class="st5" d="M574,549c16-15.9,16.4-31.1,15.9-44c-0.7-17.5-9.8-24.8-20.4-24.5c-2.5,0.1-12,5-11.8,13.2
			C558.2,508.4,594.8,525.6,574,549z"/>
		<path class="st18" d="M528,653.1c0-7-5.5-12.7-12.3-12.7c-6.8,0-12.3,5.7-12.3,12.7c0,7,5.5,12.7,12.3,12.7
			C522.5,665.8,528,660.1,528,653.1z"/>
		<path class="st18" d="M469.9,398.6c1.1-7.7-2.5-14.5-8.1-15.3c-5.5-0.8-10.9,4.8-12,12.5c-1.1,7.7,2.5,14.5,8.1,15.3
			C463.4,411.9,468.8,406.3,469.9,398.6z"/>
		<path class="st18" d="M644,559.7c1.1-7.7-2.5-14.5-8.1-15.3c-5.5-0.8-10.9,4.8-12,12.5c-1.1,7.7,2.5,14.5,8.1,15.3
			C637.6,572.9,642.9,567.4,644,559.7z"/>
		<path class="st17" d="M496.8,226.6c1.1-7.7-2.5-14.5-8.1-15.3c-5.5-0.8-10.9,4.8-12,12.5c-1.1,7.7,2.5,14.5,8.1,15.3
			C490.4,239.8,495.8,234.2,496.8,226.6z"/>
		<path class="st17" d="M566.6,589.2c-4-2-8.4-1.3-9.9,1.6c-1.5,2.9,0.6,6.9,4.6,8.9c4,2,8.4,1.3,9.9-1.6
			C572.7,595.2,570.6,591.2,566.6,589.2z"/>
		<path class="st17" d="M584.4,594.3c-0.9-1.7-2.9-2.4-4.6-1.6c-1.7,0.8-2.3,2.9-1.4,4.6c0.9,1.7,2.9,2.4,4.6,1.6
			C584.6,598.1,585.2,596,584.4,594.3z"/>
		<path class="st17" d="M591.2,604.3c-1.1-1.6-3.2-2-4.8-1c-1.5,1.1-1.9,3.2-0.8,4.8c1.1,1.6,3.2,2,4.8,1
			C591.9,608,592.2,605.9,591.2,604.3z"/>
		<path class="st17" d="M464.3,287.8c1-6.9-2.5-13-7.7-13.8c-5.2-0.7-10.2,4.2-11.2,11.1c-1,6.9,2.5,13,7.7,13.8
			C458.3,299.7,463.3,294.7,464.3,287.8z"/>
		<path class="st18" d="M595.8,271.3c-1.7-6.5-7.7-10.6-13.3-9.1c-5.6,1.5-8.7,8-7,14.5c1.7,6.5,7.7,10.6,13.3,9.1
			C594.4,284.3,597.5,277.8,595.8,271.3z"/>
		<path class="st17" d="M634,369.3c2.9-5.2,1.1-11.8-4-14.6c-5.1-2.9-11.7-1-14.6,4.2c-2.9,5.2-1.1,11.8,4,14.6
			C624.6,376.4,631.1,374.5,634,369.3z"/>
		<path class="st18" d="M660.8,501c2.2-3.9,0.9-8.9-3-11.1c-3.9-2.2-8.8-0.8-11,3.2c-2.2,3.9-0.9,8.9,3,11
			C653.7,506.3,658.6,504.9,660.8,501z"/>
		<path class="st5" d="M449.2,377c0.5-3.4-1.4-6.4-4.3-6.8c-2.8-0.4-5.5,2-6,5.4c-0.5,3.4,1.4,6.4,4.3,6.8
			C446,382.8,448.7,380.4,449.2,377z"/>
		<path class="st19" d="M597.2,251.8c0.5-3.4-1.4-6.4-4.3-6.8c-2.8-0.4-5.5,2-6,5.4c-0.5,3.4,1.4,6.4,4.3,6.8
			C594.1,257.6,596.7,255.2,597.2,251.8z"/>
		<path class="st5" d="M449.1,265.1c0.5-3.4-1.4-6.4-4.3-6.8c-2.8-0.4-5.5,2-6,5.4c-0.5,3.4,1.4,6.4,4.3,6.8
			C445.9,270.9,448.6,268.5,449.1,265.1z"/>
		<path class="st19" d="M509.5,197.3c1.8-2.6,1.2-6-1.3-7.7c-2.5-1.7-5.9-1-7.7,1.6c-1.8,2.6-1.2,6,1.3,7.7
			C504.3,200.6,507.8,199.9,509.5,197.3z"/>
		<path class="st5" d="M509.4,248.4c0.5-3.4-1.4-6.4-4.3-6.8c-2.8-0.4-5.5,2-6,5.4c-0.5,3.4,1.4,6.4,4.3,6.8
			C506.2,254.2,508.9,251.8,509.4,248.4z"/>
		<path class="st19" d="M523.5,260.4c0.4-2.7-1.6-5.2-4.4-5.6c-2.8-0.4-5.4,1.5-5.8,4.2c-0.4,2.7,1.6,5.3,4.4,5.6
			C520.5,265,523.1,263.1,523.5,260.4z"/>
		<path class="st17" d="M618.9,311.9c0.5-3.4-1.4-6.4-4.3-6.8c-2.8-0.4-5.5,2-6,5.4c-0.5,3.4,1.4,6.4,4.3,6.8
			C615.7,317.7,618.4,315.3,618.9,311.9z"/>
		<path class="st18" d="M610.3,235c0.5-3.4-1.4-6.4-4.3-6.8c-2.8-0.4-5.5,2-6,5.4c-0.5,3.4,1.4,6.4,4.3,6.8
			C607.2,240.8,609.8,238.4,610.3,235z"/>
		<path class="st17" d="M629.2,232.8c0.4-2.5-1.1-4.8-3.2-5.1c-2.1-0.3-4.1,1.5-4.5,4c-0.4,2.5,1.1,4.8,3.2,5.1
			C626.8,237.1,628.8,235.3,629.2,232.8z"/>
		<path class="st18" d="M525.4,186.9c1.5-1.9,1.3-4.5-0.5-5.9c-1.8-1.4-4.4-1-5.9,0.9c-1.5,1.9-1.3,4.5,0.5,5.9
			C521.3,189.1,523.9,188.7,525.4,186.9z"/>
		<path class="st19" d="M521.5,173.6c1.4-1.9,1.2-4.5-0.6-5.9c-1.8-1.3-4.4-0.9-5.9,1c-1.4,1.9-1.2,4.5,0.6,5.9
			C517.5,175.9,520.1,175.5,521.5,173.6z"/>
		<path class="st19" d="M543.9,663.8c0-3.3-2.6-5.9-5.8-5.9c-3.2,0-5.8,2.7-5.8,5.9c0,3.3,2.6,5.9,5.8,5.9
			C541.4,669.7,543.9,667.1,543.9,663.8z"/>
		<path class="st18" d="M613,384.3c0-3.3-2.6-5.9-5.8-5.9c-3.2,0-5.8,2.7-5.8,5.9c0,3.3,2.6,5.9,5.8,5.9
			C610.4,390.2,613,387.6,613,384.3z"/>
		<path class="st17" d="M606.2,464.3c0-4.3-3.4-7.8-7.6-7.8c-4.2,0-7.6,3.5-7.6,7.8c0,4.3,3.4,7.8,7.6,7.8
			C602.8,472.1,606.2,468.7,606.2,464.3z"/>
		<path class="st19" d="M593.6,392.9c0-3.3-2.6-5.9-5.8-5.9c-3.2,0-5.8,2.7-5.8,5.9c0,3.3,2.6,5.9,5.8,5.9
			C591,398.8,593.6,396.1,593.6,392.9z"/>
		<path class="st5" d="M600.4,486.4c0-3.3-2.6-5.9-5.8-5.9c-3.2,0-5.8,2.7-5.8,5.9c0,3.3,2.6,5.9,5.8,5.9
			C597.8,492.3,600.4,489.7,600.4,486.4z"/>
		<path class="st19" d="M602,503.3c0-2.3-1.8-4.2-4.1-4.2c-2.3,0-4.1,1.9-4.1,4.2c0,2.3,1.8,4.2,4.1,4.2
			C600.2,507.6,602,505.7,602,503.3z"/>
		<path class="st5" d="M613.4,516.3c0-2.3-1.8-4.2-4.1-4.2c-2.3,0-4.1,1.9-4.1,4.2c0,2.3,1.8,4.2,4.1,4.2
			C611.6,520.5,613.4,518.6,613.4,516.3z"/>
		<path class="st18" d="M538.1,456.9c0-3.4-2.7-6.2-6-6.2c-3.3,0-6,2.8-6,6.2c0,3.4,2.7,6.2,6,6.2
			C535.4,463.1,538.1,460.3,538.1,456.9z"/>
		<path class="st5" d="M459.5,455c8.2-34.4,52-53.4,86.1-61.6c21-4.8,30.8-25.5,30.8-45.8c0-26.6-19.4-39.6-35-39.6
			c-17.3,0-28.4,17.9-47.5,17.9c-12.8,0-17.5-9.1-17.5-20.7c0-32,27.7-32.9-9.1-59.5c-12.7-9.2-2.3-39.9,18.9-48.7
			c-20,0-36.5,22.3-38.1,48.1c0,20.8,24.7,21.1,24.7,39.3c0,16.7-24.4,38.5-24.4,61.6c0,12.9,11.1,30.9,24.1,30.9
			c19.4,0,31.8-48.7,68.2-48.7c9.6,0,15.9,15.5,15.9,25.7c0,38.3-50.5,19-77.5,49.8C471.9,412,460.8,432,459.5,455z"/>
		<path class="st19" d="M494,375.1c11-8,26.6-31,41.3-29.9c6,0.5,9,6.7,8,12c-3.4,19.5-22.2,7.9-43.4,15
			C498.7,372.7,496.3,373.8,494,375.1z"/>
		<g>
			<path class="st17" d="M611.5,328.4c-17.9,8.6-10.6,37.7-43.7,63.1c5.3-2.4,20.4-12.8,24.5-16.2c18.9-15.3,20.2-30.7,30.2-33.4
				c6.8-1.9,18.9,2.7,23.3,11.6c5.9,12-7.2,34.2,0.7,52.2c5.6,12.7,23,18.4,36.8,13.3C735.3,399.5,672.1,299.3,611.5,328.4z"/>
		</g>
		<path class="st17" d="M628.2,245.5c-9.6,0-20,9-20,28.9c0,27.5,28.7,24.9,28.7,39.6c0,8.5-8.2,17.3-14.9,21.8l-12.9,5.3
			c33.9-4.1,46.7-39.7,46.7-58.5C655.8,260.6,642,245.5,628.2,245.5z"/>
		<path class="st19" d="M639.7,436.7c9.3,0,19.3,7.5,19.3,24c0,22.8-27.8,20.7-27.8,32.9c0,7,7.9,14.4,14.4,18.1l12.5,4.4
			c-32.8-3.4-45.1-33-45.1-48.6C613,449.2,626.3,436.7,639.7,436.7z"/>
		<path class="st18" d="M572.2,307.3c6.9,9.1,7.5,26.9,12.8,26.9c2.1,0,11.6-5.2,11.6-13.2c0-0.4,0-0.7-0.1-1.1
			C595.1,310,580.9,309,572.2,307.3z"/>
		<path class="st18" d="M633.4,379.6c-0.9,16.8-6.2,29.2,6.5,44.2c1.9,2.2-18,1.9-24.4-8.4c-0.3-0.5-0.6-0.9-0.8-1.4
			C608.3,400.1,624.4,388.2,633.4,379.6z"/>
		<path class="st19" d="M541.1,179c-7.7-9.1-10.9-19.6-33.2-24.4c-3.9-0.8,15.4-11.6,27.8-6.1c0.5,0.2,1,0.5,1.5,0.8
			C549.2,156.3,543.3,170.7,541.1,179z"/>
		<path class="st17" d="M570.3,474.1c-12.3,3.2-21.8,8.7-24.7,24.1c-0.4,2.1-12.7-10.9-9.5-21.5c0.1-0.5,0.3-1,0.5-1.5
			C543.1,461.6,561.4,467.6,570.3,474.1z"/>
		<path class="st19" d="M696.8,444.6c-16.4-1.3-29.3,20.7-30.2,32.1c-1.6,19.4,18.6,18.1,17.3,34.6c-0.6,7.5-8.2,16-27.6,14.4
			c-31.2-2.5-42.4-22.7-48.6-30.7c2,20.3,47,33.9,44.4,65.7c-0.8,10.6-10.5,24.1-25.8,22.8c-42.4-3.4-28.7,39.5-9.6,55.6
			c18.3,15.5,63.8-1.6,69.3-46.5c2.9-23.6-9.7-34.1-8.6-47.8c0.3-4.1,4.3-6.9,7.5-7.7c21.6-6.3,37.4-26.1,39.1-47.8
			C725.5,471,714.7,446.1,696.8,444.6z"/>
		<path class="st19" d="M512.2,136.7c-19.4-16.8-16.9-36.5-36.3-38.5c-14.7-1.5-33.3,9.2-36.7,41.7c-3.7,36.4,11.7,48.6,20.9,49.5
			c11.5,1.2,29.2-12.6,31.2-25.4c-0.5-3.7-1.1-8.4-0.7-12.6c1.2-11.3,8.6-12.5,20.7-11.3c4.5,0.5,9,1.3,13.5,1.8
			C536,143,516.3,139.8,512.2,136.7z"/>
		<path class="st18" d="M551.7,147.3c16.7,15.9,26,37.2,28.6,59.4c2.2,18.4,2,24.4-1.7,30.7c-7,10.9-16.2,22.7-30,24.3
			c-22.8,2.7-32.4-19.8-35-41.4c-4.4-37.1,46.3-22.3,41.6-62.2C554.8,154.4,553.6,150.7,551.7,147.3z"/>
		<path class="st17" d="M503.3,297.5c6.6,9.1,55.5-16.6,70-8.4C542.4,268.6,483.7,270.3,503.3,297.5z"/>
		<path class="st5" d="M558.5,560c1.1,17.2,12.2,27.4,22.9,25.2c6.4-1.3,31.8-23.8,22.1-43.9c-16.7-34.8-54.1-12.7-72.4-35.5
			c3.8,8.9,10.3,13.3,17.1,19.7C555.3,532.1,557.2,539.4,558.5,560z"/>
		<path class="st17" d="M543,580.7c-6.2,10.6-6.9,21-7.1,30.4c-0.4,18.5,8.7,26.7,19.9,27.1c2.7,0.1,13-4.4,13.3-13.1
			c0.2-6.8-14.4-14.2-17.5-19.4C546.3,596.4,543,588.2,543,580.7z"/>
		<defs>
			<filter id="Adobe_OpacityMaskFilter_2_" filterUnits="userSpaceOnUse" x="415.4" y="83" width="316.4" height="634.5">
				<feFlood  style="flood-color:white;flood-opacity:1" result="back"/>
				<feBlend  in="SourceGraphic" in2="back" mode="normal"/>
			</filter>
		</defs>
		<mask maskUnits="userSpaceOnUse" x="415.4" y="83" width="316.4" height="634.5" id="SVGID_4_">
			<g class="st20">
				<defs>
					<filter id="Adobe_OpacityMaskFilter_3_" filterUnits="userSpaceOnUse" x="415.4" y="83" width="316.4" height="634.5">
						<feFlood  style="flood-color:white;flood-opacity:1" result="back"/>
						<feBlend  in="SourceGraphic" in2="back" mode="normal"/>
					</filter>
				</defs>
				<mask maskUnits="userSpaceOnUse" x="415.4" y="83" width="316.4" height="634.5" id="SVGID_4_">
					<g class="st21">
					</g>
				</mask>
				<linearGradient id="SVGID_5_" gradientUnits="userSpaceOnUse" x1="573.6328" y1="180.9966" x2="573.6328" y2="664.1044">
					<stop  offset="0" style="stop-color:#333333"/>
					<stop  offset="1" style="stop-color:#B3B3B3"/>
				</linearGradient>
				<path class="st22" d="M710.6,421.5c10.7-43-9.9-92.3-48.1-112.6c14.6-55.9-24.5-119-77.5-122.1c-7.2-38.9-48.3-72.7-73.1-66.2
					c-2.5-22.9-30.2-44.4-55.5-35.4c-50,17.7-40.3,160.4-40.3,160.4v374.8c-3,56.8,148.4,161.7,194.4,43.2
					c56.8,13.3,107.1-65.3,87.3-107.2C737.7,535.6,743.2,456.4,710.6,421.5z"/>
			</g>
		</mask>
		<linearGradient id="SVGID_6_" gradientUnits="userSpaceOnUse" x1="573.6328" y1="180.9966" x2="573.6328" y2="664.1044">
			<stop  offset="0" style="stop-color:#FFB65C"/>
			<stop  offset="1" style="stop-color:#510028"/>
		</linearGradient>
		<path class="st23" d="M710.6,421.5c10.7-43-9.9-92.3-48.1-112.6c14.6-55.9-24.5-119-77.5-122.1c-7.2-38.9-48.3-72.7-73.1-66.2
			c-2.5-22.9-30.2-44.4-55.5-35.4c-50,17.7-40.3,160.4-40.3,160.4v374.8c-3,56.8,148.4,161.7,194.4,43.2
			c56.8,13.3,107.1-65.3,87.3-107.2C737.7,535.6,743.2,456.4,710.6,421.5z"/>
	</g>
</g>
</svg>
